<svg xmlns:xlink="http://www.w3.org/1999/xlink" xmlns="http://www.w3.org/2000/svg" viewBox="0 0 657 360" width="715"  height="429" ><defs><style>.a{fill:#2d2f37;}.a,.b{fill-rule:evenodd;}.b{fill:#13161e;}</style></defs><title>AFL - Dark</title><path class="a" d="M0,180C0,80.59,147.07,0,328.51,0S657,80.59,657,180,509.92,360,328.51,360,0,279.41,0,180"/><path class="b" d="M12,179.49C12,82.56,153.69,4,328.5,4S645,82.56,645,179.49,503.3,355,328.5,355,12,276.42,12,179.49"/><path class="a" d="M593,257H447.25L434.64,96h88.2l-45.2,19.46H496l12.87,101H583.4ZM396.64,162.07l1.9,35.4H339.4V257H220l-5.86-25.69H142.67l-13,25.69H66l87.55-141.54H173.3L131.18,96.05h96.87l48.66,145.5h2l4.71-145.5H422.69l3,39.35H339.4v26.67Z"/><polyline class="b" points="192.43 138 189.21 138 157 202 207 202 192.43 138"/><path class="a" d="M328.49,17C184.62,17,68,90,68,180.18A106.41,106.41,0,0,0,75.83,220l12.46-20.09a104.43,104.43,0,0,1-1.89-19.64c0-70.76,72.87-130.51,172.81-149.74V47.91h7V29.25a363,363,0,0,1,36.91-4.39v36.4H310V24.45q9.15-.43,18.47-.44c6.22,0,12.36.15,18.46.44V61.26h6.95V24.86a362.62,362.62,0,0,1,36.91,4.39V47.91h7V30.53c99.93,19.23,172.81,79,172.81,149.74a103.33,103.33,0,0,1-3.36,26h18.44A104.65,104.65,0,0,0,589,180.18C589,90,472.36,17,328.49,17"/><path class="a" d="M327.89,336.15c-76.66,0-145-23-189.31-59H119C166.45,317.11,242.35,343,327.89,343S489.56,317.05,537,277H517.42c-44.32,36-112.75,59.15-189.53,59.15"/><path class="a" d="M560.47,269.23a11.19,11.19,0,0,1,11.3,11.45,10.85,10.85,0,0,1-3.31,7.78,11.67,11.67,0,0,1-8,3.31,11.35,11.35,0,0,1-11.21-11.31,11.5,11.5,0,0,1,3.41-8.08A10.82,10.82,0,0,1,560.47,269.23Zm0-2.23A13.1,13.1,0,0,0,549,273.45a13.69,13.69,0,0,0-2,7.06,13.49,13.49,0,0,0,3.85,9.41,13.35,13.35,0,0,0,9.58,4.08,13.79,13.79,0,0,0,9.6-3.94,13.56,13.56,0,0,0,.14-19A13.52,13.52,0,0,0,560.43,267Zm-5.58,5.71v15h3.62v-6.14h1.81l2.89,6.14h4.07L563.88,281a4,4,0,0,0,3.28-4c0-2.87-2.14-4.33-6.43-4.33Zm3.62,2.32h1.63c2.21,0,3.29.67,3.29,2.23s-1,2.13-3.11,2.13h-1.81V275Z"/></svg>