<svg xmlns:xlink="http://www.w3.org/1999/xlink" xmlns="http://www.w3.org/2000/svg" class="icon " aria-hidden="true" width="146"  height="52" ><defs><symbol fill="none" viewBox="0 0 146 52" id="icn-afl-logo-sponsor" xmlns="http://www.w3.org/2000/svg"><g clip-path="url(#aeclip0_28079_48408)" fill-rule="evenodd" clip-rule="evenodd"><path d="M48.533 48.533H145.6V3.467H48.533v45.066z" fill="#fff"></path><path d="M50.266 46.8h93.6V5.2h-93.6v41.6z" fill="#023C91"></path><path d="M52.867 44.2h88.4V7.8h-88.4v36.4z" fill="#F0001B"></path><path d="M116.743 30.987c1.531-1.397 2.79-4.765 2.79-8.957 0-.227.004-.446-.003-.667 5.72-.825 8.07-3.253 8.464-4.977 1.288 1.38 1.998 3.087 1.853 5.18-.344 4.95-5.828 8.967-13.104 9.42zm-1.472-3.276h-.007c-1.303 0-2.52-2.809-2.612-6.168 0 0 .372.037.865.062a37.77 37.77 0 001.682.042h.136a37.897 37.897 0 001.684-.042c.492-.025.863-.062.863-.062-.091 3.36-1.308 6.168-2.611 6.168zm-14.583-6.145c-.145-2.093.566-3.8 1.853-5.18.393 1.724 2.744 4.152 8.464 4.977-.006.22-.003.44-.003.667 0 4.192 1.259 7.56 2.789 8.957-7.275-.454-12.759-4.47-13.103-9.421zm16.95-2.675c-.752.064-1.559.099-2.369.099h-.002c-.811 0-1.618-.035-2.37-.099.407-2.365 1.331-4.021 2.367-4.021h.007c1.036 0 1.96 1.656 2.367 4.021zm-2.374-6.76h.007c5.452 0 9.75 1.609 9.75 3.44 0 1.393-2.352 2.588-5.761 3.122-.604-3.592-2.163-6.151-3.992-6.161-1.83.01-3.389 2.569-3.994 6.161-3.407-.534-5.76-1.73-5.76-3.123 0-1.83 4.298-3.44 9.75-3.44zm.004-1.406c-9.387.047-17.07 4.722-17.01 10.864.06 6.132 7.719 10.67 17.006 10.67h.007c9.286 0 16.946-4.538 17.006-10.67.06-6.142-7.623-10.817-17.009-10.864zM131.998 38.779l-.974-2.355-.967 2.355h1.941zm-1.858-4.075h1.81l2.675 6.413h-1.646l-.493-1.19h-2.903l-.488 1.19h-1.548l2.593-6.413zM110.286 34.72h-1.872l2.614 4.019v2.378h1.625v-2.378l2.592-4.02h-1.852l-1.553 2.821-1.554-2.82zM128.062 34.713l.001 1.348h-2.078l-.002 5.056h-1.622l-.001-5.056h-2.079l.002-1.344 5.779-.004zM103.248 37.922c0 1.007.539 2.03 1.836 2.03 1.297 0 1.836-1.023 1.836-2.03 0-1.008-.539-2.031-1.836-2.031-1.297 0-1.836 1.023-1.836 2.03zm-1.602-.01c0-1.858 1.54-3.365 3.44-3.365 1.899 0 3.439 1.507 3.439 3.365 0 1.858-1.54 3.364-3.439 3.364-1.9 0-3.44-1.506-3.44-3.364zM101.371 34.713v1.348h-2.078v5.056h-1.626V36.06H95.59V34.72l5.781-.006zM116.699 37.922c0 1.007.539 2.03 1.837 2.03 1.296 0 1.835-1.023 1.835-2.03 0-1.008-.539-2.031-1.835-2.031-1.298 0-1.837 1.023-1.837 2.03zm-1.601-.01c0-1.858 1.539-3.365 3.439-3.365 1.899 0 3.439 1.507 3.439 3.365 0 1.858-1.54 3.364-3.439 3.364-1.9 0-3.439-1.506-3.439-3.364zM.717 26.004C.717 12.037 20.962.722 45.933.722s45.215 11.315 45.215 25.282c0 13.96-20.244 25.274-45.215 25.274C20.962 51.278.717 39.964.717 26.004z" fill="#fff"></path><path d="M2.035 26.004c0-13.56 19.655-24.546 43.9-24.546 24.243 0 43.897 10.987 43.897 24.546 0 13.554-19.654 24.539-43.897 24.539-24.245 0-43.9-10.985-43.9-24.54z" fill="#0C3F91"></path><path d="M49.562 39.612H29.617l-.719-3.635h-7.705l-1.115 2.835c6.028 4.804 15.368 7.881 25.856 7.881 9.889 0 18.756-2.739 24.788-7.076h-9.805l-1.27-16.754h-2.535l.453 8.544h-8.003v8.205zM20.521 12.87h12.794l4.416 13.68.384-13.673h33.243c-3.806-2.9-8.841-5.142-14.607-6.398v2.202h-3.38v-2.82a56.197 56.197 0 00-2.707-.315v5.003h-3.378V5.351c-.45-.008-.9-.015-1.353-.015-.453 0-.905.007-1.354.015v5.198h-3.377V5.546c-.916.083-1.82.192-2.708.316v2.82h-3.378V6.478c-5.76 1.256-10.796 3.492-14.595 6.39zM70.826 17.024l1.604 12.632h5.91c.337-1.183.512-2.401.512-3.64 0-3.873-1.696-7.497-4.645-10.595l-3.38 1.604zM20.058 16.673l-2.499-1.148c-2.887 3.076-4.547 6.665-4.547 10.492 0 .635.05 1.264.138 1.887l6.908-11.231z" fill="#F0001B"></path><path d="M55.416 23.463l.261 4.944h-8.21v8.312H30.894l-.817-3.587h-9.924l-1.803 3.587H9.51l12.153-19.765h2.743l-5.85-2.707h13.452l6.756 20.315h.274l.657-20.315H59.03l.421 5.492H47.467v3.724h7.95zM82.68 36.72H62.444l-1.75-22.48h12.243l-6.276 2.723h2.554l1.788 14.088h10.343l1.334 5.669z" fill="#fff"></path><path d="M27.13 20.095h-.444l-4.456 8.936h6.918l-2.018-8.936z" fill="#023C91"></path><path d="M45.934 3.144c-19.955 0-36.131 10.233-36.131 22.86 0 1.923.376 3.791 1.086 5.576l1.732-2.813a14.469 14.469 0 01-.265-2.75c0-9.915 10.108-18.286 23.967-20.977v2.435h.965V4.862a48.782 48.782 0 015.12-.613v5.096h.966V4.19a50.668 50.668 0 012.56-.062c.86 0 1.711.02 2.558.062v5.154h.964V4.249c1.75.114 3.46.326 5.121.613v2.613h.964V5.04c13.862 2.691 23.973 11.062 23.973 20.976 0 1.239-.166 2.453-.468 3.64h2.556c.306-1.193.46-2.41.46-3.653 0-12.626-16.175-22.859-36.128-22.859zM45.933 47.9c-10.64 0-20.119-3.228-26.274-8.258h-2.718c6.588 5.59 17.12 9.217 28.992 9.217 11.887 0 22.437-3.633 29.017-9.242h-2.715c-6.15 5.048-15.649 8.283-26.302 8.283zM78.017 38.557h.236c.323 0 .481.104.481.33 0 .223-.147.316-.455.316h-.262v-.646zm-.535-.342v2.225h.535v-.91h.262l.424.91h.598l-.492-.993c.298-.077.48-.297.48-.59 0-.426-.312-.642-.944-.642h-.863zm.817-.847c-.714 0-1.332.357-1.681.96-.2.336-.288.683-.288 1.042 0 .52.194 1.015.564 1.398.38.39.877.608 1.405.608.516 0 1.023-.203 1.412-.587.376-.372.584-.867.584-1.42a1.982 1.982 0 00-1.996-2.001zm.007.33c.464 0 .868.168 1.193.494.308.323.47.723.47 1.204 0 .43-.175.85-.489 1.154-.33.316-.746.494-1.18.494-.437 0-.858-.182-1.172-.508a1.65 1.65 0 01-.473-1.174c0-.438.181-.872.498-1.197.31-.31.704-.467 1.153-.467z" fill="#fff"></path></g><defs><clipPath id="aeclip0_28079_48408"><path fill="#fff" d="M0 0h145.6v52H0z"></path></clipPath></defs></symbol></defs>
			<use xmlns:xlink="http://www.w3.org/1999/xlink" xlink:href="#icn-afl-logo-sponsor" fill="#004099"></use>
	</svg>