<svg xmlns:xlink="http://www.w3.org/1999/xlink" xmlns="http://www.w3.org/2000/svg" class="icon " aria-hidden="true" width="400"  height="400" ><defs><symbol fill="none" viewBox="0 0 400 400" id="icn-logo-sanfl" xmlns="http://www.w3.org/2000/svg"><defs><path id="hga" fill="#ED3729" d="M306.106 87.27c-32.641-14.985-68.962-23.31-107.254-23.31-38.293 0-74.613 8.37-107.254 23.31v120.485c0 56.519 43.813 105.37 107.254 128.196 63.441-22.826 107.254-71.677 107.254-128.196V87.269z"></path></defs><g clip-path="url(#hga)"><use xlink:href="#hga"></use><path fill="#001B49" d="M195.61 344.539c-33.167-11.961-61.338-30.713-81.405-54.241-21.03-24.623-32.114-53.276-32.114-82.894V80.873l5.52-2.542c35.006-16.035 72.423-24.14 111.197-24.14 38.775 0 76.191 8.149 111.197 24.184l5.521 2.541v126.488c0 29.662-11.085 58.315-32.115 82.938-20.066 23.528-48.238 42.279-81.405 54.24l-3.198 1.14-3.198-1.14v-.043z"></path><path fill="#001B49" d="M198.808 348l-3.943-1.402c-33.517-12.092-61.995-31.063-82.324-54.854C91.204 266.727 79.9 237.591 79.9 207.448V79.471l6.79-3.111C122.005 60.193 159.728 52 198.809 52s76.804 8.193 112.117 24.36l6.791 3.11v127.847c0 30.187-11.303 59.366-32.64 84.383-20.329 23.835-48.808 42.806-82.325 54.854l-3.943 1.402V348zM84.281 82.275v125.173c0 29.092 10.91 57.264 31.589 81.492 19.848 23.221 47.669 41.754 80.485 53.583l2.453.877 2.454-.877c32.816-11.829 60.681-30.362 80.484-53.583 20.68-24.228 31.589-52.4 31.589-81.536V82.274l-4.25-1.97c-34.7-15.861-71.809-23.967-110.277-23.967S123.231 64.4 88.531 80.303l-4.25 1.972z"></path><path fill="#FFD900" d="M197.231 340.201c-32.422-11.654-59.849-29.924-79.433-52.838-20.242-23.747-30.976-51.349-30.976-79.827V84.071l2.76-1.27c34.394-15.773 71.153-23.747 109.226-23.747 38.074 0 74.833 7.974 109.226 23.746l2.76 1.27v123.51c0 28.479-10.734 56.081-30.976 79.828-19.54 22.914-47.011 41.184-79.433 52.838l-1.621.57-1.621-.57.088-.044z"></path><use xlink:href="#hga"></use><path fill="#FFD900" d="M209.148 151.893a.88.88 0 01-.876.877.88.88 0 01-.877-.877v-4.556h-2.19v4.556a.88.88 0 01-.876.877.88.88 0 01-.877-.877v-4.556h-2.19v4.556a.88.88 0 01-.877.877.88.88 0 01-.876-.877v-4.556h-2.191v4.556a.88.88 0 01-.876.877.88.88 0 01-.876-.877v-4.556h-2.191v4.556a.88.88 0 01-.876.877.88.88 0 01-.876-.877v-4.556h-2.191v4.556a.88.88 0 01-.876.877.88.88 0 01-.876-.877v-4.556h-25.806c1.051 12.793 17.131 23.002 36.847 23.002 19.715 0 35.795-10.165 36.846-23.002h-26.375v4.556h-.044zm-21.512-11.741c0-.482.394-.876.876-.876s.876.394.876.876v4.556h2.191v-4.556c0-.482.394-.876.876-.876a.88.88 0 01.877.876v4.556h2.19v-4.556c0-.482.395-.876.876-.876a.88.88 0 01.877.876v4.556h2.19v-4.556a.88.88 0 01.877-.876c.482 0 .876.394.876.876v4.556h2.191v-4.556c0-.482.394-.876.876-.876s.876.394.876.876v4.556h2.191v-4.556c0-.482.394-.876.876-.876s.876.394.876.876v4.556h26.376c-1.052-12.793-17.131-23.001-36.803-23.001-19.672 0-35.795 10.164-36.847 23.001h25.806v-4.556z"></path><path fill="#fff" d="M241.219 147.424h38.599v-33.297c0-11.26-11.084-28.084-36.277-28.084h-90.605c-23.571 0-33.78 20.372-33.78 28.084v61.338c.92 10.865 10.778 27.032 37.767 27.032 0 0 35.357-.307 40.834-.044h1.577c23.527 0 41.973 12.618 41.973 28.698 0 16.079-18.446 28.697-41.973 28.697-14.108 0-26.375-4.512-33.955-11.61-5.389-4.6-8.412-10.384-8.412-16.561v-2.366H119.2v35.05c0 14.59 15.422 27.427 29.968 27.427h106.334c9.42 0 24.141-12.136 24.141-27.646v-62.083c0-8.543-2.454-13.494-5.696-17.306-3.023-3.549-11.917-9.683-25.849-9.683 0 0-48.72.351-50.122 0-13.495 0-24.01-3.943-30.713-10.077-6.178-4.994-9.902-11.479-9.902-18.708 0-16.079 18.445-28.697 41.973-28.697 8.5 0 16.386 1.665 22.914 4.513 12.049 4.95 19.059 13.932 19.059 22.957v2.41l-.088-.044z"></path><path fill="url(#hgb)" d="M274.736 202.016v62.039c0 12.925-12.837 22.782-19.278 22.782H149.124c-12.662 0-25.104-11.172-25.104-22.563v-29.355l-4.864-5.696v35.051c0 14.633 15.422 27.427 29.968 27.427h106.334c9.42 0 24.141-12.137 24.141-27.646v-62.039h-4.863z"></path><path fill="url(#hgc)" d="M199.29 197.547h-1.49c-1.664-.044-5.257-.088-11.084-.088-12.18 0-29.662.131-29.837.131-24.272 0-32.027-13.976-32.816-22.388v-61.119H119.2v61.338c.92 10.822 10.778 27.033 37.767 27.033 0 0 35.357-.307 40.833-.044h1.534c23.527 0 41.973 12.618 41.973 28.697h4.863c0-18.839-20.592-33.56-46.836-33.56h-.044z"></path><path fill="url(#hgd)" d="M274.955 142.561h-28.96c-1.139-10.383-9.289-19.803-21.907-25.017-7.273-3.198-15.86-4.907-24.754-4.907-26.288 0-46.836 14.765-46.836 33.561h4.863c0-16.079 18.445-28.698 41.973-28.698 8.5 0 16.386 1.665 22.914 4.513 12.049 4.951 19.059 13.933 19.059 22.958v2.41h38.599v-33.298h-4.863v28.435l-.088.043z"></path><path fill="#D0D2D3" d="M274.955 142.562h-29.004l-4.732 4.863h38.599"></path><path fill="#001B49" d="M86.078 222.695c-.702-2.76-1.753-6.616-6.178-5.433-2.936.745-3.943 2.98-3.33 5.302.35 1.226.876 2.409 2.278 3.11 1.534.789 4.995.877 6.923.833 5.652-.088 13.319-.088 18.357 1.577 2.892.964 5.17 2.541 6.704 4.863 1.621 2.454 2.76 5.389 3.33 8.325 0 .131 0 .175.043.306 3.199 14.984-7.711 23.44-21.03 26.814-8.237 2.103-17.306 3.067-25.674.394a7343.383 7343.383 0 00-5.258-16.386 673.406 673.406 0 0120.9-6.134c1.007 3.681 1.664 6.485 2.716 7.58 1.007 1.052 2.76 1.446 4.337 1.052 2.848-.745 3.461-3.593 2.892-5.828-1.578-6.396-6.222-5.87-12.487-5.476-11.304.701-22.783.131-26.463-12.75a49.101 49.101 0 01-.438-1.358c-1.797-6.659-1.621-10.471 3.286-16.035 4.206-4.776 12.005-7.974 18.138-9.245 9.946-2.103 19.366-3.198 29.267.132 1.183 5.914 1.797 8.894 2.98 14.808a914.052 914.052 0 00-21.118 4.732c-.132-.482-.175-.701-.307-1.183"></path><path fill="#001B49" d="M95.015 275.402c-9.77 2.76-20.548 3.286-30.274.307-1.402-.482-2.06-.701-3.462-1.14-2.979-8.85-6.002-17.656-8.981-26.506 1.358-.482 2.059-.701 3.417-1.14-3.987-2.628-7.317-6.791-9.551-13.45-.22-.657-.35-.964-.57-1.665-2.672-7.974-1.051-16.123 4.688-22.345 6.047-6.572 14.678-10.383 23.09-12.355 11.303-2.629 23.44-3.855 34.831.351 1.665.569 2.497.832 4.118 1.445l4.732 25.762c-.964.176-1.489.263-2.453.439 1.358 1.139 2.453 2.497 3.373 3.943 1.972 3.067 3.374 6.703 4.119 10.734 0 .131 0 .175.044.307 3.68 18.752-9.683 31.37-27.077 35.313M73.897 262.74c3.9.701 8.456.482 13.582-.526-2.803-.263-5.476-1.402-7.404-3.286l-.131-.131a11.269 11.269 0 01-2.279-3.505c-2.19.657-3.286.964-5.52 1.621.701 2.322 1.052 3.505 1.752 5.827zM61.98 227.032c.132.482.22.745.35 1.227 1.71 9.026 11.042 8.807 18.359 7.974.438 0 .7 0 1.139-.044 8.236-.788 17.087 1.884 19.058 10.997 1.052 5.039-.745 9.858-4.469 12.662 8.062-2.76 12.005-8.324 9.99-16.649 0-.131 0-.175-.044-.306-.482-2.279-1.315-4.294-2.454-5.871-.043-.088-.087-.132-.175-.263-.35-.57-.876-1.227-2.848-1.84-3.768-1.227-10.822-1.183-15.466-1.096-4.994.088-8.543-.438-11.084-1.708-4.47-2.191-5.652-6.003-6.003-7.273-1.402-4.82.701-9.683 5.083-12.575-4.776 1.578-8.018 3.33-9.683 5.214-2.673 3.023-3.11 4.25-1.796 9.551m30.23-12.048c2.191-.526 3.287-.745 5.477-1.227-.307-1.49-.482-2.234-.788-3.68-4.031-.833-8.237-.92-12.925-.263 3.154.394 5.827 1.928 7.667 4.337.219.263.394.57.57.833z"></path><path fill="#001B49" d="M142.815 257.263c-7.667 1.139-15.29 2.366-22.914 3.768-.876-4.469-1.27-6.703-2.147-11.172 2.016-1.928 1.665-5.17 1.884-7.755.351-15.51.964-31.019 1.797-46.485a679.447 679.447 0 0133.998-4.382 1271.76 1271.76 0 0114.502 45.434c.526 1.972 1.622 5.521 4.075 6.046.307 4.557.438 6.791.701 11.348-8.806.57-17.613 1.358-26.375 2.454-.57-4.513-.833-6.791-1.402-11.304 1.621-.789 2.278-2.103 2.059-3.812-.088-.657-.307-1.227-.526-1.84-4.206.482-6.265.789-10.427 1.358-.088.614-.132 1.315-.044 1.884.263 1.796 1.402 2.892 3.286 3.067.613 4.513.92 6.747 1.533 11.26m2.191-29.793a1009.12 1009.12 0 00-6.134-18.401h-.175a953.78 953.78 0 00-1.008 19.321c2.936-.394 4.381-.613 7.317-.964"></path><path fill="#001B49" d="M182.641 260.944a497.147 497.147 0 00-68.742 8.719 19114.9 19114.9 0 01-4.601-21.994c.92-.877 1.359-1.315 2.279-2.191.043-.482.043-1.227.087-1.753 0-.525 0-1.095.044-1.577.088-17.481.526-34.963 1.314-52.444a614.68 614.68 0 0149.027-6.309 1264.322 1264.322 0 0115.685 51.48c.132.526.263.92.351 1.227 1.445.307 2.146.482 3.548.789.351 8.017.745 15.991 1.096 24.009m-27.471-12.487c4.557-.482 6.791-.701 11.348-1.051 0-.307 0-.438-.044-.745-2.585-2.673-3.637-6.221-4.162-7.974-4.206-13.231-8.632-26.375-13.232-39.475a467.31 467.31 0 00-19.365 2.497 1405.302 1405.302 0 00-2.147 40.79c0 .394-.044.788-.088 1.227-.087 1.927-.219 4.731-1.533 7.448.088.526.131.832.219 1.358 3.198-.57 4.776-.832 7.974-1.314 0-.176 0-.219-.044-.395-2.059-1.621-3.461-3.943-3.943-6.703-.219-1.358-.131-2.629 0-3.68.175-1.446.219-2.147.394-3.593-.482.088-.745.131-1.227.175.263-11.391.614-22.739 1.183-34.13 5.828-.876 8.763-1.227 14.59-1.928 3.549 10.822 7.01 21.688 10.252 32.597-.306 0-.438 0-.701.088.526 1.358.789 2.015 1.315 3.373.306.789.788 2.016.92 3.549.263 2.673-.394 5.126-1.753 7.185 0 .263 0 .395.088.658"></path><path fill="#001B49" d="M212.697 218.183h.175c.088-4.513.175-6.791.263-11.304.044-2.41.394-4.776-2.41-6.353l.219-11.391c8.237.131 16.43.482 24.667 1.051-.307 4.557-.438 6.791-.745 11.348-2.891 1.314-2.804 3.724-2.935 6.09-.964 15.466-1.928 30.932-2.848 46.398a391.516 391.516 0 00-20.329-.789 584.112 584.112 0 00-12.881-28.829h-.176c.044 4.469.088 6.703.176 11.172 0 2.41-.176 4.776 2.409 6.266 0 4.556.044 6.834.088 11.391-6.966.044-13.932.263-20.855.657l-.657-11.347c2.497-1.622 2.147-4.031 2.015-6.397-.482-9.595-.964-19.19-1.489-28.785-.132-2.41 0-4.82-2.892-6.134l-.657-11.348a519.34 519.34 0 0126.112-.788c4.469 9.595 8.763 19.277 12.75 29.092z"></path><path fill="#001B49" d="M236.005 261.82c-21.906-1.533-43.681-1.577-65.631-.175-.57-7.536-1.14-15.072-1.665-22.608.92-.613 1.358-.92 2.278-1.533v-.263c0-.263 0-.35-.044-.613-.657-9.771-1.358-19.585-2.015-29.355v-.263c-1.052-.482-1.578-.701-2.629-1.183-.57-7.536-1.139-15.071-1.665-22.607 26.857-1.753 53.496-1.621 80.309.438l-1.928 22.564c-1.051.482-1.577.701-2.628 1.139v.263c0 .262 0 .35-.044.613-1.402 17.876-2.848 35.707-4.25 53.583m-22.038-15.729c3.111.088 4.644.132 7.755.263.569-13.231 1.183-26.463 1.752-39.694.088-2.016.176-5.608 2.98-8.631 0-.439 0-.701.044-1.14-2.848-.131-4.25-.219-7.098-.306v1.139c2.497 3.242 2.322 6.835 2.234 8.85v.526c-.306 7.404-.438 11.128-.745 18.533-5.52-.219-8.28-.307-13.844-.351-4.031-9.77-8.369-19.365-12.925-28.916-4.469.087-6.747.131-11.216.306 0 .438 0 .701.043 1.139 2.761 3.067 2.805 6.66 2.848 8.632v.525l1.008 29.311c.088 2.016.219 5.564-2.015 8.807 0 .438 0 .701.043 1.139 2.279-.088 3.418-.132 5.74-.176v-1.139c-2.454-3.11-2.541-6.703-2.585-8.675v-.525c-.219-7.361-.351-11.041-.57-18.402 5.565-.175 8.369-.219 13.933-.219 4.469 9.551 8.762 19.19 12.749 28.96"></path><path fill="#001B49" d="M273.115 216.474c.438-2.936 1.008-5.17.307-6.704-.658-1.49-2.498-2.497-6.967-2.804-.657 4.82-.964 7.273-1.621 12.092 5.783.789 8.631 1.183 14.415 2.147-.833 4.951-1.227 7.405-2.016 12.356-5.608-.921-8.412-1.359-14.02-2.103l-1.095 8.105c-.307 2.366-.876 4.688 1.489 6.528-.613 4.513-.92 6.747-1.577 11.26a412.897 412.897 0 00-25.411-2.76c.35-4.557.525-6.791.92-11.348 2.672-1.27 2.672-3.68 2.848-6.09.788-9.551 1.621-19.146 2.453-28.697.307-3.374.175-5.389-2.453-6.528.35-4.557.525-6.791.876-11.348a581.828 581.828 0 0155.686 7.536l-4.206 21.687a429.745 429.745 0 00-19.672-3.373"></path><path fill="#001B49" d="M268.471 265.675c-13.188-2.059-26.507-3.548-39.87-4.337.482-7.536.92-15.072 1.402-22.608.964-.481 1.446-.744 2.453-1.182v-.877l1.928-28.741v-.351c-1.139-.481-1.752-.701-2.891-1.182.481-7.843.963-15.729 1.445-23.572a576.091 576.091 0 0174.044 10.033c-2.541 11.961-5.038 23.878-7.579 35.795-5.083-1.051-7.624-1.577-12.706-2.497-1.183 6.397-1.753 9.595-2.936 15.992-5.476-1.008-8.236-1.446-13.757-2.278-.088.613-.131.876-.219 1.489 0 .088 0 .175-.044.263.876.701 1.271 1.008 2.147 1.709a3937.603 3937.603 0 00-3.505 22.388m-23.528-17.613c4.163.395 6.222.614 10.384 1.14.044-.439.088-.658.132-1.14-1.972-3.417-1.534-6.966-1.315-8.981 0-.219 0-.307.044-.526 1.49-12.969 3.023-25.981 4.513-38.95-3.768-.438-5.652-.613-9.464-1.007 0 .263 0 .438-.087.701 2.672 3.549 2.234 7.798 2.015 9.945-1.008 9.727-1.972 19.453-2.979 29.18-.176 1.971-.526 5.564-3.199 8.455 0 .439-.044.658-.087 1.14m37.197-37.504c1.446.219 2.19.35 3.636.613l1.315-7.448c-4.469-.789-6.704-1.139-11.173-1.84 3.067 1.577 4.645 3.724 5.433 5.564.438 1.052.701 2.059.833 3.067"></path><path fill="#001B49" d="M288.23 261.82c.877-4.469 1.358-6.703 2.235-11.172 2.848-.964 3.067-3.33 3.592-5.696 1.928-9.42 3.9-18.796 5.828-28.215.481-2.366 1.226-4.645-1.227-6.66.876-4.469 1.358-6.703 2.234-11.172 9.639 2.015 19.146 4.25 28.698 6.659-1.139 4.382-1.753 6.616-2.892 10.997-3.111.745-3.461 3.111-4.075 5.433l-8.193 31.808c.833.219 1.227.307 2.06.526 5.345 1.402 6.09-1.533 7.185-5.433 1.095-4.03 1.665-6.002 2.76-10.033a434.26 434.26 0 0119.146 5.74 7887.582 7887.582 0 00-9.551 29.617c-15.772-4.907-31.589-9.069-47.756-12.487"></path><path fill="#001B49" d="M340.937 283.595a488.13 488.13 0 00-61.513-16.079l4.074-22.301a61.446 61.446 0 002.585-.92c0-.088 0-.175.044-.263 0-.263.044-.351.132-.613a6678.596 6678.596 0 015.476-28.917c0-.088 0-.175.044-.263-.92-.745-1.358-1.095-2.234-1.796l4.074-22.301a600.548 600.548 0 0146.486 10.778l-6.178 21.819c-1.139.263-1.709.35-2.848.613a.615.615 0 01-.087.263c-.088.219-.088.351-.176.614a513.992 513.992 0 00-2.146 7.798 665.822 665.822 0 0127.076 8.368c-4.951 14.415-9.858 28.786-14.809 43.2zm-20.636-21.6a311.635 311.635 0 0110.428 3.023c1.928-6.353 2.891-9.551 4.819-15.904-1.314-.394-1.971-.613-3.286-.964-.35 1.271-.569 1.884-.92 3.199-.701 2.453-1.533 5.213-3.812 7.448-1.27 1.227-3.592 2.935-7.229 3.198zM297.3 256.3c3.198.701 4.775 1.051 7.974 1.84 3.066-12.881 6.177-25.762 9.244-38.643.438-1.972 1.227-5.433 4.557-7.887.131-.438.175-.657.262-1.095-4.556-1.095-6.834-1.665-11.391-2.629-.088.438-.131.658-.263 1.096 1.884 3.636 1.052 7.141.614 9.113-.044.219-.088.306-.132.482-2.147 9.551-4.294 19.058-6.44 28.609-.438 1.972-1.183 5.433-4.206 8.018-.088.438-.132.657-.263 1.096"></path><path fill="#fff" d="M86.078 222.695c-.702-2.76-1.753-6.616-6.178-5.433-2.936.745-3.943 2.98-3.33 5.302.35 1.226.876 2.409 2.278 3.11 1.534.789 4.995.877 6.923.833 5.652-.088 13.319-.088 18.357 1.577 2.892.964 5.17 2.541 6.704 4.863 1.621 2.454 2.76 5.389 3.33 8.325 0 .131 0 .175.043.306 3.199 14.984-7.711 23.44-21.03 26.814-8.237 2.103-17.306 3.067-25.674.394a7343.383 7343.383 0 00-5.258-16.386 673.406 673.406 0 0120.9-6.134c1.007 3.681 1.664 6.485 2.716 7.58 1.007 1.052 2.76 1.446 4.337 1.052 2.848-.745 3.461-3.593 2.892-5.828-1.578-6.396-6.222-5.87-12.487-5.476-11.304.701-22.783.131-26.463-12.75a49.101 49.101 0 01-.438-1.358c-1.797-6.659-1.621-10.471 3.286-16.035 4.206-4.776 12.005-7.974 18.138-9.245 9.946-2.103 19.366-3.198 29.267.132 1.183 5.914 1.797 8.894 2.98 14.808a914.052 914.052 0 00-21.118 4.732c-.132-.482-.175-.701-.307-1.183m56.869 34.568c-7.667 1.139-15.29 2.366-22.914 3.768-.876-4.469-1.27-6.703-2.147-11.172 2.016-1.928 1.665-5.17 1.884-7.755.351-15.51.964-31.019 1.797-46.485a679.447 679.447 0 0133.998-4.382 1271.76 1271.76 0 0114.502 45.434c.526 1.972 1.622 5.521 4.075 6.046.307 4.557.438 6.791.701 11.348-8.806.57-17.613 1.358-26.375 2.454-.57-4.513-.833-6.791-1.402-11.304 1.621-.789 2.278-2.103 2.059-3.812-.088-.657-.307-1.227-.526-1.84-4.206.482-6.265.789-10.427 1.358-.088.614-.132 1.315-.044 1.884.263 1.796 1.402 2.892 3.286 3.067.613 4.513.92 6.747 1.533 11.26m2.191-29.793a1009.12 1009.12 0 00-6.134-18.401h-.175a953.78 953.78 0 00-1.008 19.321c2.936-.394 4.381-.613 7.317-.964m67.691-9.112h.175c.088-4.513.175-6.791.263-11.304.044-2.41.394-4.776-2.41-6.353l.219-11.391c8.237.131 16.43.482 24.667 1.051-.307 4.557-.438 6.791-.745 11.348-2.891 1.314-2.804 3.724-2.935 6.09-.964 15.466-1.928 30.932-2.848 46.398a391.516 391.516 0 00-20.329-.789 584.112 584.112 0 00-12.881-28.829h-.176c.044 4.469.088 6.703.176 11.172 0 2.41-.176 4.776 2.409 6.266 0 4.556.044 6.834.088 11.391-6.966.044-13.932.263-20.855.657l-.657-11.347c2.497-1.622 2.147-4.031 2.015-6.397-.482-9.595-.964-19.19-1.489-28.785-.132-2.41 0-4.82-2.892-6.134l-.657-11.348a519.34 519.34 0 0126.112-.788c4.469 9.595 8.763 19.277 12.75 29.092zm60.418-1.709c.438-2.936 1.008-5.17.307-6.704-.658-1.49-2.498-2.497-6.967-2.804-.657 4.82-.964 7.273-1.621 12.092 5.783.789 8.631 1.183 14.415 2.147-.833 4.951-1.227 7.405-2.016 12.356-5.608-.921-8.412-1.359-14.02-2.103l-1.095 8.105c-.307 2.366-.876 4.688 1.489 6.528-.613 4.513-.92 6.747-1.577 11.26a412.897 412.897 0 00-25.411-2.76c.35-4.557.525-6.791.92-11.348 2.672-1.27 2.672-3.68 2.848-6.09.788-9.551 1.621-19.146 2.453-28.697.307-3.374.175-5.389-2.453-6.528.35-4.557.525-6.791.876-11.348a581.828 581.828 0 0155.686 7.536l-4.206 21.687a429.745 429.745 0 00-19.672-3.373m15.159 45.39c.877-4.469 1.358-6.703 2.235-11.172 2.848-.964 3.067-3.33 3.592-5.696 1.928-9.42 3.9-18.796 5.828-28.215.481-2.366 1.226-4.645-1.227-6.66.876-4.469 1.358-6.703 2.234-11.172 9.639 2.015 19.146 4.25 28.698 6.659-1.139 4.382-1.753 6.616-2.892 10.997-3.111.745-3.461 3.111-4.075 5.433l-8.193 31.808c.833.219 1.227.307 2.06.526 5.345 1.402 6.09-1.533 7.185-5.433 1.095-4.03 1.665-6.002 2.76-10.033a434.26 434.26 0 0119.146 5.74 7887.582 7887.582 0 00-9.551 29.617c-15.772-4.907-31.589-9.069-47.756-12.487"></path><path fill="#ED3729" d="M93.526 269.706c-8.938 1.841-17.613 3.286-26.55.395l-.658-.219c-1.972-6.09-3.943-12.224-5.915-18.314a457.207 457.207 0 0122.914-6.747c-.482 0-.964.044-1.445.087-.483 0-.745 0-1.227.044-12.049.833-24.054-.087-27.997-13.626a49.093 49.093 0 01-.438-1.358c-1.84-6.747-1.84-11.216 3.549-17.262 4.776-5.345 12.224-8.105 19.059-9.814 9.77-2.454 20.68-3.33 30.318.175.307.088.482.175.789.263a1953.727 1953.727 0 013.33 16.912 754.514 754.514 0 00-21.995 4.907c5.52-.088 12.575.044 17.438 1.708 3.549 1.183 5.915 3.067 7.448 5.477 1.577 2.41 2.848 5.477 3.505 8.763 0 .131 0 .175.044.306 3.33 15.817-8.018 25.018-22.213 28.435m-24.798-2.015c7.842 2.322 16.386 1.314 24.097-.658 12.53-3.198 23.089-10.778 19.891-25.148 0-.132 0-.176-.044-.307-.613-2.979-1.752-5.696-3.198-7.886-1.271-1.972-3.111-3.374-6.003-4.338-4.819-1.621-12.355-1.577-17.788-1.489-3.724.043-6.352-.307-7.754-1.008-1.885-.92-2.586-2.497-2.98-3.899-.876-3.243.92-6.134 4.557-7.054 6.002-1.578 7.404 3.592 8.061 6.221 7.186-1.752 10.778-2.585 18.007-4.031-1.051-5.082-1.577-7.623-2.585-12.749-9.288-2.892-18.751-2.147-27.47.175-5.74 1.533-12.837 3.768-17.175 8.675-4.556 5.17-4.688 8.456-3.023 14.809l.438 1.314c2.673 12.005 14.853 12.618 24.886 11.83.482 0 .7 0 1.183-.088 5.695-.307 11.04-.482 12.793 6.572.745 3.067-.394 6.616-4.03 7.536-2.104.525-4.426 0-5.784-1.402-1.183-1.183-1.796-3.462-2.716-6.791-7.186 1.971-10.734 2.979-17.876 5.257 1.84 5.784 2.76 8.675 4.557 14.459m15.64-22.958c.22.832.351 1.27.57 2.103.745 2.804 1.359 5.257 2.103 6.002.614.657 1.797.92 2.804.657 2.103-.526 2.103-2.935 1.797-4.118-1.008-4.031-2.98-4.732-7.273-4.644zm-4.161-26.157c-2.585.657-2.366 2.717-2.103 3.549.306 1.095.657 1.84 1.577 2.278.832.439 2.804.658 5.345.658a27.066 27.066 0 01-.482-2.016c-1.008-4.031-2.015-5.082-4.294-4.513"></path><path fill="#ED3729" d="M176.244 255.379a584.953 584.953 0 00-29.135 2.717c-.701-5.433-1.052-8.15-1.753-13.626.351-.175.526-.263.92-.438 1.052-.526 1.402-1.227 1.271-2.41 0-.175-.044-.307-.088-.482a429.24 429.24 0 00-7.974 1.052v.482c.176 1.183.789 1.796 2.016 1.927.438.044.701.088 1.139.132.745 5.476 1.095 8.237 1.84 13.713a430.289 430.289 0 00-25.718 4.206c-1.052-5.301-1.534-7.93-2.585-13.231.219-.219.35-.307.57-.526 1.226-1.139 1.27-3.242 1.314-5.258 0-.525 0-1.051.088-1.533.306-15.904.876-31.764 1.708-47.625a655.058 655.058 0 0136.803-4.731 1220.29 1220.29 0 0114.721 46.573c.307 1.183 1.271 4.688 2.936 5.038l1.095.219c.351 5.521.482 8.237.832 13.757m-26.594-.394c7.843-.964 15.685-1.665 23.528-2.19-.263-3.637-.351-5.477-.614-9.114-2.629-1.314-3.636-4.95-4.074-6.659-4.513-14.853-9.245-29.618-14.283-44.295-10.428.964-20.812 2.366-31.195 3.987a1428.568 1428.568 0 00-1.884 45.39c0 .482-.044.964-.088 1.446-.087 2.103-.175 4.688-1.708 6.572.701 3.68 1.051 5.52 1.708 9.157a384.056 384.056 0 0120.11-3.286 546.048 546.048 0 00-1.27-8.938c-1.884-.57-3.155-2.015-3.461-4.031-.088-.745 0-1.489.043-2.234.044-.438.088-.657.132-1.096 5.126-.744 7.711-1.095 12.837-1.664.175.394.263.613.394 1.007.263.614.526 1.315.614 2.147.219 1.928-.482 3.549-1.972 4.644.438 3.637.657 5.433 1.095 9.07m-2.628-26.376c-4.382.526-6.572.789-10.91 1.446.307-7.361.657-14.765 1.096-22.126 1.139-.175 1.708-.219 2.891-.394 2.366 7.01 4.688 14.02 6.966 21.074m-7.711-1.796c1.49-.219 2.235-.307 3.681-.482-1.271-3.768-1.884-5.696-3.155-9.464-.219 3.987-.35 5.959-.526 9.946z"></path><path fill="#ED3729" d="M230.353 255.555c-7.579-.439-15.071-.701-22.651-.877-3.286-7.93-6.791-15.816-10.427-23.615 0 2.059 0 3.067.044 5.126 0 2.279.087 3.593 1.708 4.513.263.175.438.219.701.394 0 5.389 0 8.106.088 13.539-7.886 0-15.817.306-23.703.788-.307-5.389-.482-8.105-.789-13.494l.658-.438c1.533-1.008 1.533-2.366 1.402-4.601v-.569c-.526-9.771-1.052-19.585-1.621-29.355-.088-2.278-.263-3.593-2.016-4.425-.307-.131-.482-.219-.788-.351-.307-5.389-.482-8.105-.789-13.494a711.188 711.188 0 0128.96-.876 620.467 620.467 0 0110.34 23.396c0-1.928.044-2.892.088-4.819.044-2.279 0-3.637-1.709-4.557-.307-.175-.438-.263-.745-.438.088-5.389.132-8.106.175-13.538 9.376.219 18.709.613 28.041 1.183-.395 5.389-.57 8.105-.964 13.494-.307.131-.482.219-.789.35-1.796.789-1.928 2.147-2.059 4.426v.569c-1.052 15.904-2.059 31.852-3.111 47.756m-20.679-3.636c7.185.131 10.778.263 17.963.657.876-15.203 1.796-30.362 2.672-45.565.088-2.104.22-4.645 2.936-6.266.219-3.724.35-5.564.613-9.244-7.054-.482-14.195-.745-21.249-.877a654.315 654.315 0 00-.175 9.289c2.541 1.84 2.453 4.425 2.409 6.484v.57c-.131 5.082-.219 7.623-.35 12.662-1.139 0-1.665-.044-2.804-.088-4.031-9.77-8.325-19.453-12.793-29.048-7.755.131-15.466.351-23.221.701.219 3.724.306 5.564.482 9.245 2.672 1.664 2.804 4.206 2.848 6.309v.569c.481 9.77.92 19.541 1.402 29.355.131 2.103.262 4.644-2.016 6.572l.482 9.288c7.229-.394 10.822-.482 18.007-.569-.044-3.725-.087-5.565-.131-9.289-2.41-1.752-2.41-4.293-2.454-6.396v-.57l-.219-12.531h2.76c4.513 9.508 8.851 19.103 12.838 28.829m53.583 6.835a554.385 554.385 0 00-28.172-3.067c.394-5.389.613-8.105 1.008-13.494.306-.131.438-.219.745-.351 1.664-.788 1.84-2.103 2.015-4.381v-.569c.832-9.552 1.621-19.147 2.366-28.698.307-3.505 0-4.513-1.534-5.126-.394-.175-.613-.263-1.007-.438.394-5.477.613-8.193 1.007-13.67a584.807 584.807 0 0159.148 8.018c-1.621 8.105-3.199 16.255-4.82 24.36-7.579-1.402-15.115-2.716-22.739-3.899.088-.526.132-.833.22-1.359a59.65 59.65 0 01.262-1.577c.307-1.928.526-3.505.132-4.381-.175-.394-.614-1.314-4.031-1.753a675.317 675.317 0 00-1.27 9.42c5.783.789 8.674 1.227 14.414 2.191-1.008 6.002-1.533 9.025-2.541 15.071-5.564-.92-8.368-1.358-13.977-2.146-.394 2.891-.613 4.381-1.007 7.273-.351 2.234-.438 3.592 1.007 4.731.263.219.395.307.658.482-.745 5.345-1.139 8.018-1.928 13.407m-25.061-5.608a785.183 785.183 0 0122.564 2.454c.482-3.681.744-5.521 1.226-9.201-2.103-2.103-1.752-4.644-1.489-6.704 0-.219.044-.35.087-.569.482-3.768.745-5.696 1.227-9.464 5.652.745 8.456 1.139 14.064 2.059.613-3.855.92-5.783 1.533-9.595-5.739-.92-8.587-1.358-14.37-2.103.745-5.914 1.139-8.85 1.928-14.721.613 0 .92.044 1.489.088.745.044 1.446.131 2.059.219 2.235.307 5.258 1.095 6.353 3.549.701 1.533.438 3.461 0 5.827v.175c6.616 1.008 9.946 1.577 16.562 2.848 1.183-6.309 2.409-12.662 3.592-18.971-17.35-3.154-34.656-5.477-52.225-7.098-.306 3.637-.438 5.477-.745 9.113 2.848 1.753 2.585 4.732 2.366 7.361-.876 9.77-1.708 19.497-2.585 29.267-.175 2.103-.394 4.644-2.891 6.221-.307 3.681-.438 5.565-.745 9.245zm98.71 22.695c-16.648-5.257-33.341-9.595-50.428-13.188 1.051-5.301 1.577-7.973 2.629-13.275.306-.087.482-.175.788-.263 1.753-.569 2.103-1.884 2.541-4.118.044-.219.088-.351.132-.57 1.971-9.595 3.899-19.19 5.871-28.785.482-2.234.657-3.549-.877-4.819-.262-.219-.394-.351-.657-.526 1.052-5.301 1.578-7.974 2.629-13.275 10.734 2.147 21.425 4.6 32.027 7.448-1.402 5.214-2.103 7.842-3.505 13.056a6.88 6.88 0 01-.832.175c-1.928.439-2.322 1.709-2.892 3.944l-.131.569c-2.673 10.165-5.302 20.286-7.974 30.45.219.044.35.088.613.175 2.673.701 3.374 0 3.637-.306.744-.789 1.183-2.279 1.664-4.031 1.271-4.6 1.884-6.923 3.155-11.523a677.626 677.626 0 0122.213 6.66c-3.505 10.734-7.01 21.468-10.515 32.246m-47.011-15.291a532.437 532.437 0 0145.083 11.786c2.848-9.026 5.74-18.007 8.631-27.033-6.396-2.059-9.638-3.023-16.079-4.819-1.008 3.549-1.49 5.301-2.497 8.85-.57 2.016-1.096 3.9-2.322 5.126-1.49 1.49-3.637 1.84-6.616 1.052-1.402-.351-2.103-.526-3.505-.92 2.848-11.26 5.739-22.476 8.587-33.736.482-2.016 1.096-4.513 4.075-5.608.92-3.593 1.402-5.389 2.322-8.982a506.587 506.587 0 00-25.368-5.915c-.745 3.637-1.139 5.433-1.884 9.07 2.191 2.278 1.665 4.775 1.183 6.834-.044.219-.087.307-.131.526-2.016 9.595-4.031 19.146-6.046 28.741-.395 2.06-.92 4.557-3.637 5.828-.745 3.636-1.139 5.476-1.884 9.113"></path></g><defs><linearGradient id="hgb" x1="114.798" x2="275.241" y1="250.856" y2="250.856" gradientUnits="userSpaceOnUse"><stop stop-color="#F5F5F5"></stop><stop offset=".02" stop-color="#E4E5E6"></stop><stop offset=".03" stop-color="#D8DADB"></stop><stop offset=".05" stop-color="#D1D3D4"></stop><stop offset=".1" stop-color="#D0D2D3"></stop><stop offset=".41" stop-color="#BABCBE"></stop><stop offset=".63" stop-color="#929497"></stop><stop offset=".83" stop-color="#D0D2D3"></stop><stop offset=".91" stop-color="#D1D3D4"></stop><stop offset=".95" stop-color="#D8DADB"></stop><stop offset=".97" stop-color="#E4E5E6"></stop><stop offset=".99" stop-color="#F5F5F5"></stop><stop offset="1" stop-color="#fff"></stop></linearGradient><linearGradient id="hgc" x1="186.944" x2="186.944" y1="109.222" y2="241.274" gradientUnits="userSpaceOnUse"><stop stop-color="#fff"></stop><stop offset=".02" stop-color="#fff"></stop><stop offset=".19" stop-color="#D0D2D3"></stop><stop offset=".46" stop-color="#BABCBE"></stop><stop offset=".82" stop-color="#929497"></stop><stop offset="1" stop-color="#fff"></stop></linearGradient><linearGradient id="hgd" x1="147.545" x2="274.953" y1="134.791" y2="134.791" gradientUnits="userSpaceOnUse"><stop stop-color="#D0D2D3"></stop><stop offset=".33" stop-color="#BABCBE"></stop><stop offset=".82" stop-color="#929497"></stop><stop offset=".99" stop-color="#fff"></stop><stop offset="1" stop-color="#fff"></stop></linearGradient><clipPath id="hga"><path fill="#fff" d="M44.28 52h311.422v296H44.28z"></path></clipPath></defs></symbol></defs>
			<use xmlns:xlink="http://www.w3.org/1999/xlink" xlink:href="#icn-logo-sanfl"></use>
	</svg>