<svg xmlns:xlink="http://www.w3.org/1999/xlink" xmlns="http://www.w3.org/2000/svg" class="icon club-logo" aria-hidden="true" width="200"  height="200" ><defs><symbol fill="none" viewBox="0 0 200 200" id="icn-aflc-stk" xmlns="http://www.w3.org/2000/svg"><path d="M156.726 33.609l-.089-.356a14.504 14.504 0 00-.133-.624l-.089-.311c-.045-.223-.089-.445-.134-.579l-.044-.223c-.089-.266-.178-.534-.312-.756-.267-.579-.712-1.113-1.202-1.558-.178-.178-.4-.312-.623-.445a5.195 5.195 0 00-2.715-.757H48.96c-.801 0-1.602.178-2.315.534-.49.223-.89.534-1.29.935-.178.178-.357.4-.535.579-.089.089-.133.222-.222.311-.223.356-.4.712-.49 1.113-.044.223-.356 1.29-.712 3.116l-.134.668-.133.8c-.49 2.983-1.069 7.835-1.069 13.889 0 1.87.045 3.828.179 5.787.044.89.089 1.825.178 2.715l.267 2.938c.356 3.65.934 7.345 1.602 10.995a115.15 115.15 0 002.538 10.638c.222.713.4 1.47.623 2.181 1.201 3.962 2.581 7.924 4.184 11.707 7.523 18.34 19.185 34.81 34.676 48.965.712.668 1.468 1.335 2.225 2.003 2.315 2.048 4.719 4.006 7.078 5.876l.534.4a7.944 7.944 0 004.362 1.291c1.247 0 2.493-.311 3.606-.846.49-.222.89-.489 1.291-.801 2.893-2.27 5.786-4.674 8.546-7.211a209.297 209.297 0 006.366-6.098c8.012-8.146 14.912-17.093 20.476-26.575a122.595 122.595 0 008.324-17.004 129.343 129.343 0 005.519-17.226c.134-.49.223-.98.356-1.514.223-.979.446-1.958.624-2.938.089-.49.178-.979.267-1.424.089-.49.178-.935.267-1.424l.4-2.27a135.29 135.29 0 001.425-12.553c.044-.623.089-1.202.089-1.78.089-2.004.133-3.962.133-5.788.089-7.878-.89-13.62-1.469-16.38z" fill="#fff"></path><path d="M155.124 31.74c-.445-1.603-2.003-2.716-3.739-2.716H48.96c-1.736 0-3.25 1.113-3.74 2.67 0 .09-2.002 6.99-2.002 18.162 0 1.691.044 3.606.178 5.742a127.02 127.02 0 002.047 16.47 126.771 126.771 0 007.3 24.304c6.41 15.58 17.005 32.628 34.41 48.564a183.993 183.993 0 009.213 7.834c1.158.935 2.671 1.425 4.185 1.425 1.513 0 3.027-.49 4.184-1.425 2.982-2.359 5.831-4.718 8.502-7.122 17.716-15.98 28.444-33.206 34.854-49.231 3.427-8.591 5.608-16.826 6.988-24.304 1.069-6.01 1.647-11.574 1.87-16.47.089-2.048.133-3.962.133-5.742.045-10.684-1.736-17.36-1.958-18.162z" fill="#fff"></path><path d="M113.148 72.246v-16.47h-26.13v16.47H49.273A122.66 122.66 0 0056.75 96.55h30.269v43.445c3.605 3.428 7.478 6.855 11.707 10.149.49.356 1.068.579 1.691.579s1.246-.223 1.692-.579a157.937 157.937 0 0010.994-9.481V96.55h30.67c3.561-8.59 5.831-16.87 7.256-24.304h-37.881z" fill="#000"></path><path d="M155.124 31.917c-.445-1.602-2.003-2.715-3.739-2.715H48.96c-1.736 0-3.25 1.113-3.74 2.67 0 .09-2.002 6.99-2.002 18.162 0 1.691.044 3.606.178 5.742a127.02 127.02 0 002.047 16.47 126.77 126.77 0 007.3 24.304c6.41 15.58 17.005 32.628 34.41 48.564a183.993 183.993 0 009.213 7.834c1.158.935 2.671 1.425 4.185 1.425 1.513 0 3.027-.49 4.184-1.425 2.982-2.359 5.831-4.718 8.502-7.122 17.716-15.98 28.444-33.207 34.854-49.231 3.427-8.591 5.608-16.826 6.988-24.304 1.069-6.01 1.647-11.574 1.87-16.47.089-2.048.133-3.962.133-5.742.045-10.684-1.736-17.36-1.958-18.162zm-2.003 40.33a124.075 124.075 0 01-7.078 24.303c-6.187 15.224-16.336 31.471-32.806 46.695-3.027 2.804-6.276 5.564-9.748 8.323-.846.668-1.87.98-2.938.98-1.069 0-2.137-.356-2.938-1.024-3.784-2.938-7.211-5.965-10.46-8.992-16.115-15.134-26.175-31.203-32.317-45.982a125.294 125.294 0 01-7.39-24.304 119.67 119.67 0 01-2.092-16.47 91.658 91.658 0 01-.178-5.742c0-10.861 1.914-17.627 1.914-17.672.223-.756 1.024-1.335 1.87-1.335h102.425c.89 0 1.647.534 1.869 1.335v.045c.178.712 1.914 7.255 1.914 17.627 0 1.78-.044 3.74-.133 5.742a121.065 121.065 0 01-1.914 16.47z" fill="#000"></path><path d="M153.077 57.2c.089-2.047.133-5.385.133-7.166 0-10.639-1.869-17.182-1.869-17.182v-.045H48.961v.045s-1.87 6.543-1.87 17.182c0 1.78.044 5.119.178 7.167h105.808z" fill="#ED1B2E"></path><path d="M100.729 48.164c-1.113 0-2.048.89-2.048 2.003s.89 2.048 2.048 2.048a2.07 2.07 0 002.047-2.048c0-1.112-.934-2.003-2.047-2.003z" fill="#fff"></path><path d="M100.729 52.438c-1.202 0-2.226-1.024-2.226-2.226s.98-2.181 2.226-2.181c1.202 0 2.226.98 2.226 2.181 0 1.202-1.024 2.226-2.226 2.226zm0-4.096a1.805 1.805 0 00-1.825 1.825c0 1.024.846 1.87 1.825 1.87 1.024 0 1.825-.846 1.825-1.87 0-.979-.801-1.825-1.825-1.825zM88.445 44.425l-.045-5.697h-3.027v13.487H88.4v-6.054l5.074 6.054h3.918l-6.277-7.256 5.92-6.231h-3.739l-4.852 5.697z" fill="#fff"></path><path d="M97.792 52.438h-4.407l-4.763-5.742v5.742h-3.428V38.55h3.428l.044 5.386 4.54-5.386h4.274l-6.098 6.41 6.41 7.478zm-4.274-.4h3.428l-6.099-7.078 5.743-6.054h-3.25l-5.119 6.009v-6.01h-2.67v13.132h2.67v-6.41l5.297 6.41zM73.22 41.176h1.87v-2.582h-6.544v2.582h1.736v5.43h2.938v-5.43z" fill="#fff"></path><path d="M73.443 46.785h-3.294v-5.431h-1.736v-2.938h6.9v2.938h-1.826v5.43h-.044zm-2.938-.357h2.582v-5.43h1.825v-2.226h-6.143v2.226h1.736v5.43zM64.54 39.306c-.98-.934-2.982-1.513-4.407-1.513-2.715 0-4.718 1.825-4.718 4.095 0 2.137 1.513 3.027 3.605 3.74 1.291.4 2.805.8 2.805 2.225 0 1.068-.802 2.003-2.093 2.003-1.335 0-2.492-.935-2.937-2.003l-2.048 1.691c1.113 1.603 2.76 2.671 4.986 2.671 3.294 0 5.341-1.958 5.341-4.674 0-4.585-6.41-3.65-6.41-5.964 0-.89.98-1.558 1.959-1.558 1.068 0 1.825.445 2.448 1.112l1.469-1.825z" fill="#fff"></path><path d="M59.733 52.438c-2.093 0-3.873-.935-5.12-2.76l-.089-.134 2.36-1.958.089.222c.356.89 1.38 1.87 2.76 1.87 1.246 0 1.914-.89 1.914-1.78 0-1.203-1.247-1.603-2.404-1.96l-.267-.088c-2.226-.802-3.74-1.736-3.74-3.917 0-2.404 2.182-4.318 4.897-4.318 1.424 0 3.517.578 4.54 1.558l.134.133-1.736 2.181-.134-.178c-.623-.712-1.38-1.068-2.27-1.068-.846 0-1.78.534-1.78 1.336 0 .845 1.068 1.201 2.27 1.647 1.87.667 4.14 1.468 4.14 4.317-.045 2.894-2.27 4.897-5.564 4.897zm-4.719-2.85c1.202 1.648 2.804 2.45 4.718 2.45 3.116 0 5.164-1.781 5.164-4.497 0-2.581-2.092-3.294-3.917-3.961-1.336-.49-2.537-.89-2.537-2.003 0-1.024 1.112-1.736 2.18-1.736.98 0 1.737.356 2.404 1.023l1.247-1.558c-1.024-.845-2.894-1.38-4.184-1.38-2.582 0-4.54 1.692-4.54 3.918 0 1.958 1.335 2.804 3.471 3.56l.267.09c1.247.4 2.671.89 2.671 2.314 0 1.247-.98 2.181-2.27 2.181-1.425 0-2.493-.934-2.982-1.87l-1.692 1.47zM71.796 48.164c-1.113 0-2.048.89-2.048 2.003s.935 2.048 2.048 2.048a2.071 2.071 0 002.047-2.048c-.044-1.112-.934-2.003-2.047-2.003z" fill="#fff"></path><path d="M71.796 52.438c-1.202 0-2.226-1.024-2.226-2.226s.98-2.181 2.226-2.181c1.201 0 2.225.98 2.225 2.181 0 1.202-1.024 2.226-2.225 2.226zm0-4.096a1.805 1.805 0 00-1.826 1.825c0 1.024.846 1.87 1.826 1.87 1.023 0 1.825-.846 1.825-1.87 0-.979-.802-1.825-1.825-1.825zM119.513 48.164c-1.112 0-2.047.89-2.047 2.003s.89 2.048 2.047 2.048a2.071 2.071 0 002.048-2.048c0-1.112-.935-2.003-2.048-2.003z" fill="#fff"></path><path d="M119.514 52.438c-1.202 0-2.226-1.024-2.226-2.226s.979-2.181 2.226-2.181c1.202 0 2.225.98 2.225 2.181a2.232 2.232 0 01-2.225 2.226zm0-4.096a1.805 1.805 0 00-1.825 1.825c0 1.024.845 1.87 1.825 1.87 1.024 0 1.825-.846 1.825-1.87.044-.979-.801-1.825-1.825-1.825zM143.639 48.164c-1.112 0-2.047.89-2.047 2.003s.935 2.048 2.047 2.048a2.071 2.071 0 002.048-2.048c-.045-1.112-.935-2.003-2.048-2.003z" fill="#fff"></path><path d="M143.64 52.438c-1.202 0-2.226-1.024-2.226-2.226s.979-2.181 2.226-2.181c1.202 0 2.225.98 2.225 2.181-.044 1.202-1.023 2.226-2.225 2.226zm0-4.096a1.805 1.805 0 00-1.825 1.825c0 1.024.845 1.87 1.825 1.87 1.024 0 1.825-.846 1.825-1.87 0-.979-.846-1.825-1.825-1.825zM139.411 39.084a7.414 7.414 0 00-3.25-.757c-4.317 0-7.211 3.294-7.211 7.078 0 3.65 3.072 6.855 7.167 6.855 1.202 0 2.27-.356 3.338-.802v-3.071c-.801.846-2.003 1.38-3.249 1.38-2.671 0-4.318-2.226-4.318-4.451 0-2.27 1.558-4.54 4.318-4.54 1.246 0 2.448.533 3.249 1.38v-3.072h-.044z" fill="#fff"></path><path d="M136.073 52.438c-4.051 0-7.345-3.16-7.345-7.033 0-4.051 3.249-7.256 7.434-7.256a7.24 7.24 0 013.338.801l.089.045v3.694l-.311-.356c-.757-.846-1.914-1.335-3.072-1.335-2.671 0-4.139 2.27-4.139 4.362s1.557 4.273 4.095 4.273c1.113 0 2.314-.534 3.116-1.335l.311-.312v3.65l-.133.045c-.891.312-2.048.757-3.383.757zm.089-13.933c-3.962 0-7.033 3.027-7.033 6.855 0 3.695 3.116 6.677 6.988 6.677.98 0 1.914-.222 3.161-.712v-2.493c-.846.712-2.003 1.157-3.072 1.157-2.804 0-4.496-2.359-4.496-4.629 0-2.315 1.558-4.763 4.496-4.763 1.113 0 2.226.4 3.027 1.158v-2.538a6.89 6.89 0 00-3.071-.712zM118 40.953V38.64h-7.879v13.576h3.116V46.25h4.451v-2.314h-4.451v-2.983H118z" fill="#fff"></path><path d="M113.415 52.438h-3.472V38.46h8.235v2.67h-4.763v2.627h4.496v2.67h-4.496v6.01zm-3.116-.4h2.716v-5.966h4.496v-1.914h-4.496v-3.383h4.763v-1.914h-7.523v13.176h.044z" fill="#fff"></path><path d="M87.42 162.875l-1.737.401-.49-3.027 3.161-.891h2.805v12.331h-3.74v-8.814zM93.695 170.398l1.692-2.716c.935.668 1.825 1.069 2.626 1.069.89 0 1.424-.49 1.424-1.202v-.045c0-.756-.534-1.157-1.335-1.157-.668 0-1.068.267-1.558.579l-2.136-1.069.311-6.41h7.834v3.161h-5.03l-.089 1.558a3.814 3.814 0 011.826-.445c1.958 0 3.783 1.201 3.783 3.783v.045c0 2.849-2.137 4.407-4.94 4.407-1.781 0-3.161-.579-4.408-1.558zM104.69 165.768v-.311c0-3.561 1.959-6.277 5.253-6.277s5.208 2.671 5.208 6.232v.312c0 3.561-1.959 6.276-5.253 6.276-3.249-.044-5.208-2.715-5.208-6.232zm6.722 0v-.311c0-1.914-.579-2.894-1.469-2.894-.935 0-1.469.98-1.469 2.894v.311c0 1.914.579 2.894 1.469 2.894.935 0 1.469-1.024 1.469-2.894zM36.407 114.89c-2.314-2.137-3.383-6.633-3.383-6.633s4.407.668 6.722 2.805c.267.267.534.534.757.801 0-.356.044-.757.089-1.158.534-3.249 3.516-6.81 3.516-6.81s1.78 4.184 1.291 7.434c-.49 3.16-2.493 5.564-3.25 5.608-.667.49-3.516 0-5.742-2.047zM38.099 104.518c-.623.356-3.294-1.157-4.674-4.051-1.424-2.893-.98-7.522-.98-7.522s3.829 2.27 5.209 5.163c1.424 2.894 1.113 6.099.445 6.41z" fill="#000"></path><path d="M41.393 128.867c-3.606-2.048-6.187-7.434-6.187-7.434s5.964-.445 9.57 1.603c.445.267.846.534 1.202.801a8.2 8.2 0 01-.134-1.469c-.178-4.273 2.894-9.659 2.894-9.659s3.472 4.763 3.605 9.08c.178 4.185-1.87 7.746-2.893 8.057-.757.757-4.63.979-8.057-.979z" fill="#000"></path><path d="M49.271 141.063c-3.694-1.958-6.41-7.211-6.41-7.211s5.965-.667 9.66 1.291c.445.223.845.49 1.246.757-.089-.49-.178-.979-.223-1.469-.311-4.273 2.538-9.749 2.538-9.749s3.605 4.674 3.917 8.948c.311 4.184-1.603 7.834-2.582 8.146-.757.756-4.63 1.112-8.146-.713zM61.068 152.014c-3.828-.98-7.567-5.208-7.567-5.208s5.341-1.959 9.17-.98c.444.134.89.268 1.335.446-.178-.401-.356-.846-.535-1.291-1.246-3.873.179-9.615.179-9.615s4.406 3.472 5.653 7.389c1.201 3.784.267 7.612-.579 8.101-.49.891-4.006 2.093-7.656 1.158zM72.863 160.338c-3.205-.223-6.855-3.116-6.855-3.116s4.051-2.36 7.256-2.137c.4.045.757.089 1.113.134-.223-.312-.4-.624-.623-.98-1.558-2.938-1.291-7.745-1.291-7.745s4.05 2.181 5.608 5.119c1.514 2.849 1.336 6.098.713 6.588-.223.846-2.85 2.359-5.92 2.137zM163.581 114.89c2.315-2.137 3.383-6.633 3.383-6.633s-4.407.668-6.721 2.805c-.267.267-.534.534-.757.801 0-.356-.044-.757-.089-1.158-.534-3.249-3.517-6.81-3.517-6.81s-1.78 4.184-1.29 7.434c.489 3.16 2.492 5.564 3.249 5.608.712.49 3.561 0 5.742-2.047zM161.889 104.518c.624.356 3.294-1.157 4.674-4.051 1.425-2.893.98-7.522.98-7.522s-3.829 2.27-5.208 5.163c-1.425 2.894-1.069 6.099-.446 6.41z" fill="#000"></path><path d="M158.596 128.867c3.605-2.048 6.187-7.434 6.187-7.434s-5.965-.445-9.57 1.603a14.08 14.08 0 00-1.202.801 8.2 8.2 0 00.134-1.469c.178-4.273-2.894-9.659-2.894-9.659s-3.472 4.763-3.605 9.08c-.178 4.185 1.869 7.746 2.893 8.057.757.757 4.674.979 8.057-.979z" fill="#000"></path><path d="M150.717 141.063c3.694-1.958 6.41-7.211 6.41-7.211s-5.965-.667-9.66 1.291c-.445.223-.846.49-1.246.757.089-.49.178-.979.222-1.469.312-4.273-2.537-9.749-2.537-9.749s-3.605 4.674-3.917 8.948c-.312 4.184 1.602 7.834 2.582 8.146.801.756 4.674 1.112 8.146-.713zM138.921 152.014c3.828-.98 7.567-5.208 7.567-5.208s-5.342-1.959-9.17-.98c-.445.134-.89.268-1.335.446.178-.401.356-.846.534-1.291 1.246-3.873-.178-9.615-.178-9.615s-4.407 3.472-5.653 7.389c-1.202 3.784-.267 7.612.578 8.101.535.891 4.007 2.093 7.657 1.158zM127.169 160.338c3.205-.223 6.855-3.116 6.855-3.116s-4.05-2.36-7.255-2.137a77.81 77.81 0 00-1.113.134c.222-.312.4-.624.623-.98 1.558-2.938 1.291-7.745 1.291-7.745s-4.051 2.181-5.609 5.119c-1.513 2.849-1.335 6.098-.712 6.588.178.846 2.849 2.359 5.92 2.137z" fill="#000"></path></symbol></defs>
			<use xmlns:xlink="http://www.w3.org/1999/xlink" xlink:href="#icn-aflc-stk"></use>
	</svg>