<svg xmlns:xlink="http://www.w3.org/1999/xlink" xmlns="http://www.w3.org/2000/svg" class="icon " aria-hidden="true" width="128"  height="72" ><defs><symbol viewBox="0 0 128 72" id="icn-afl-logo" xmlns="http://www.w3.org/2000/svg"><g fill="none" fill-rule="evenodd"><path fill="#FFF" d="M1 36.005C1 16.667 29.208 1 64.001 1S127 16.667 127 36.005C127 55.335 98.794 71 64.001 71 29.208 71 1 55.335 1 36.005"></path><path fill="#023C91" d="M2.836 36.005c0-18.774 27.386-33.986 61.166-33.986 33.779 0 61.163 15.212 61.163 33.986 0 18.768-27.384 33.977-61.163 33.977-33.78 0-61.166-15.209-61.166-33.977"></path><path fill="#F0001B" d="M69.057 54.847H41.266l-1.001-5.033H29.53l-1.554 3.926c8.399 6.65 21.412 10.912 36.026 10.912 13.778 0 26.133-3.792 34.538-9.797H84.878l-1.771-23.198h-3.531l.632 11.83H69.057v11.36zM28.594 17.82H46.42l6.152 18.94.535-18.93h46.32c-5.305-4.017-12.32-7.12-20.354-8.859v3.05h-4.71V8.115a78.765 78.765 0 00-3.77-.437v6.927h-4.707V7.408c-.628-.01-1.254-.02-1.885-.02-.63 0-1.262.01-1.887.02v7.198h-4.706V7.68a78.808 78.808 0 00-3.772.437v3.904H48.93v-3.05c-8.026 1.74-15.043 4.835-20.335 8.848m70.091 5.753l2.233 17.49h8.237c.468-1.639.712-3.325.712-5.039 0-5.364-2.362-10.382-6.472-14.672l-4.71 2.221zm-70.738-.487l-3.482-1.589c-4.023 4.26-6.336 9.23-6.336 14.527 0 .88.07 1.75.193 2.613l9.625-15.55z"></path><path fill="#FFF" d="M77.214 32.487l.363 6.846h-11.44v11.508h-23.09l-1.138-4.967H28.08l-2.512 4.967H13.25l16.934-27.367h3.82l-8.15-3.748H44.6l9.413 28.13h.382l.915-28.13h26.939l.586 7.605H66.138v5.156h11.076zM115.2 50.841H87.006l-2.44-31.126h17.06l-8.745 3.77h3.559l2.49 19.507h14.412l1.859 7.85z"></path><path fill="#023C91" d="M37.802 27.824h-.619l-6.208 12.373h9.638z"></path><path fill="#FFF" d="M64.001 4.354c-27.803 0-50.342 14.168-50.342 31.65 0 2.664.524 5.25 1.513 7.722l2.415-3.894a19.912 19.912 0 01-.37-3.81c0-13.726 14.084-25.317 33.394-29.043v3.37h1.345V6.733a68.383 68.383 0 017.134-.85v7.057h1.345V5.803a71.044 71.044 0 013.566-.086c1.2 0 2.385.027 3.564.086v7.136h1.344V5.883a68.61 68.61 0 017.135.849v3.618h1.344V6.979c19.313 3.726 33.401 15.317 33.401 29.044 0 1.715-.23 3.396-.651 5.04h3.56a20.08 20.08 0 00.642-5.058c0-17.483-22.538-31.651-50.34-31.651m.001 61.969c-14.826 0-28.032-4.47-36.608-11.435h-3.787c9.178 7.741 23.853 12.763 40.395 12.763 16.563 0 31.262-5.03 40.43-12.797h-3.782c-8.57 6.99-21.805 11.47-36.648 11.47m44.703-12.937h.33c.45 0 .67.144.67.457 0 .309-.206.438-.635.438h-.365v-.895zm-.745-.474v3.08h.745v-1.26h.365l.591 1.26h.833l-.685-1.374c.415-.107.668-.411.668-.816 0-.591-.434-.89-1.314-.89h-1.203zm1.14-1.173c-.997 0-1.857.495-2.344 1.33a2.737 2.737 0 00-.4 1.442c0 .72.27 1.406.784 1.936a2.73 2.73 0 001.96.842c.718 0 1.424-.281 1.966-.812a2.712 2.712 0 00.813-1.966c0-.742-.276-1.433-.783-1.944a2.762 2.762 0 00-1.997-.828zm.008.458c.646 0 1.21.232 1.662.684.43.447.656 1 .656 1.666 0 .597-.245 1.178-.682 1.599-.459.437-1.039.683-1.645.683a2.28 2.28 0 01-1.633-.703 2.278 2.278 0 01-.658-1.626c0-.606.252-1.207.694-1.657.432-.428.98-.646 1.606-.646z"></path></g></symbol></defs>
			<use xmlns:xlink="http://www.w3.org/1999/xlink" xlink:href="#icn-afl-logo"></use>
	</svg>