<svg xmlns:xlink="http://www.w3.org/1999/xlink" xmlns="http://www.w3.org/2000/svg" class="icon icon" aria-hidden="true" width="200"  height="200" ><defs><symbol viewBox="0 0 200 200" id="icn-logo-vflw" xmlns="http://www.w3.org/2000/svg"><g fill="none" fill-rule="evenodd"><path d="M100.274 184c-2.758 0-15.007-5.776-27.823-19.38-20.965-.978-35.661-2.745-35.805-2.76l-1.592-.19-.068-1.621v-26.974l1.6-.183c.06-.007 5.472-.652 13.809-1.349a156.714 156.714 0 01-3.934-9.255C37.541 100.198 33 74.107 33 44.771v-1.087l.955-.512c.606-.318 15.038-7.947 37.495-12.434.167-.03 13.15-2.304 29.18-2.304 16.061 0 28.492 2.558 29.014 2.668 19.995 4.548 36.305 12.063 36.457 12.13l1.068.497v1.156c0 29.393-4.54 55.526-13.483 77.67a158.996 158.996 0 01-3.82 9.018c8.269.698 12.908 1.274 12.953 1.274l1.91.228v28.604l-1.842.197c-.114.015-14.31 1.727-34.91 2.713C115.213 178.216 103.01 184 100.274 184" fill="#FFF" fill-rule="nonzero"></path><path d="M164.562 46.454S130.94 30.48 100.07 31.004c-37.744.632-64.477 15.336-64.477 15.336 0 108.047 60.749 135.848 64.682 135.848 3.919 0 64.288-27.8 64.288-135.734" fill="#D2D3D4" fill-rule="nonzero"></path><path d="M165.35 44.885s-34.41-15.962-65.273-15.443c-37.752.621-65.273 15.33-65.273 15.33 0 108.054 61.537 135.84 65.47 135.84 3.919 0 65.076-27.786 65.076-135.727" fill="#A8AAAD" fill-rule="nonzero"></path><path d="M163.66 45.662s-33.516-15.56-63.59-15.057c-36.783.614-63.568 14.943-63.568 14.943 0 105.292 59.952 132.358 63.772 132.358 3.82 0 63.386-27.066 63.386-132.244" fill="#192E5E" fill-rule="nonzero"></path><path d="M162.41 46.306s-33.206-15.056-62.333-14.575c-35.615.599-62.325 14.477-62.325 14.477 0 101.95 58.831 129.66 62.53 129.66 3.706 0 62.127-27.71 62.127-129.562" fill="#57587C" fill-rule="nonzero"></path><path d="M100.282 173.632c-2.214-.57-17.478-7.406-31.84-26.597-12.863-17.205-28.196-48.371-28.47-99.448 5.534-2.615 29.66-13.131 60.135-13.635.455-.016.902-.016 1.357-.016 24.74 0 52.449 11.153 58.718 13.821-.296 50.979-15.788 82.104-28.817 99.293-14.53 19.176-28.84 26.012-31.083 26.582" fill="#192E5E" fill-rule="nonzero"></path><path d="M37.01 160.057s28.233 3.41 63.06 3.41c34.842 0 63.074-3.41 63.074-3.41H37.01" fill="#192E5E" fill-rule="nonzero"></path><path fill="#FFF" fill-rule="nonzero" d="M100.077 159.253l44.324-93.692h-19.524l-24.8 51.308-24.784-51.308H55.768l44.309 93.692"></path><path d="M86.26 73.247c0 9.864 5.881 19.418 13.234 19.797V78.37h-1.812v-1.167h1.812v-1.148h-2.418v-1.156h2.418v-1.148h-3.502v-1.126h3.502v-1.178h-2.418v-1.183h2.418v-1.133h-1.812v-1.186h1.812V53.453c-7.353.383-13.234 7.811-13.234 19.794M100.653 53.453v14.492h1.827v1.186h-1.827v1.133h2.418v1.183h-2.418v1.178h3.517v1.126h-3.517v1.148h2.418v1.156h-2.418l-.008 1.148h1.835v1.167h-1.827v14.674c7.36-.38 13.249-9.095 13.249-19.797s-5.89-19.419-13.249-19.794M37.025 134.697H163.13v25.353H37.025z" fill="#FFF" fill-rule="nonzero"></path><path d="M163.258 134.697s-28.286-3.426-63.181-3.426c-34.895 0-63.166 3.426-63.166 3.426h126.347" fill="#192E5E" fill-rule="nonzero"></path><path d="M68.51 33.315C68.51 23.761 82.644 16 100.07 16c17.44 0 31.575 7.761 31.575 17.315 0 9.546-14.135 17.292-31.576 17.292-17.424 0-31.56-7.746-31.56-17.292" fill="#FFF" fill-rule="nonzero"></path><path d="M69.692 33.315c0-9.315 13.605-16.857 30.385-16.857S130.47 24 130.47 33.315c0 9.304-13.612 16.856-30.393 16.856-16.78 0-30.385-7.552-30.385-16.856" fill="#023C91" fill-rule="nonzero"></path><path d="M102.593 42.66h-13.81l-.492-2.5h-5.336l-.773 1.947c4.176 3.3 10.641 5.42 17.895 5.42 6.852 0 12.983-1.88 17.167-4.859h-6.799l-.864-11.502h-1.766l.311 5.867h-5.533v5.627M82.485 24.296h8.86l3.055 9.39.258-9.383h23.026c-2.637-1.993-6.132-3.532-10.126-4.4v1.512h-2.326v-1.932a30.756 30.756 0 00-1.88-.216v3.43h-2.335v-3.563c-.318-.015-.629-.015-.947-.015-.303 0-.614 0-.925.015v3.562h-2.342v-3.429c-.629.053-1.265.125-1.88.216v1.933H92.59v-1.512c-3.987.867-7.473 2.406-10.104 4.392M117.305 27.145l1.122 8.675h4.093a8.904 8.904 0 00.348-2.497c0-2.665-1.167-5.147-3.213-7.273l-2.35 1.095M82.167 26.903l-1.735-.792c-2.001 2.122-3.138 4.582-3.138 7.211 0 .444.038.868.09 1.297l4.783-7.716" fill="#F0001B" fill-rule="nonzero"></path><path d="M125.513 40.67h-13.999l-1.212-15.427h8.473l-4.343 1.86h1.751l1.25 9.687h7.155l.925 3.88m-18.872-9.094l.182 3.391h-5.685v5.704H89.671l-.569-2.46h-6.859l-1.258 2.46h-6.116l8.405-13.567h1.902l-4.04-1.861h9.3l4.684 13.953h.182l.455-13.953h13.385l.295 3.778h-8.299v2.555h5.503z" fill="#FFF" fill-rule="nonzero"></path><path fill="#203E79" fill-rule="nonzero" d="M87.064 29.256h-.311l-3.078 6.14h4.783l-1.394-6.14"></path><path d="M100.077 17.614c-13.81 0-24.997 7.03-24.997 15.701 0 1.319.258 2.6.743 3.828l1.198-1.933a9.195 9.195 0 01-.175-1.887c0-6.814 6.988-12.552 16.592-14.412v1.674h.666v-1.792a35.168 35.168 0 013.54-.42v3.5h.675v-3.539c.583-.03 1.175-.037 1.758-.037.599 0 1.19.007 1.782.037v3.54h.666v-3.502c1.206.08 2.388.228 3.547.42v1.793h.667v-1.674c9.596 1.86 16.584 7.598 16.584 14.412 0 .845-.106 1.682-.326 2.49h1.774a9.873 9.873 0 00.326-2.498c0-8.67-11.203-15.7-25.02-15.7M100.077 48.356c-7.36 0-13.923-2.213-18.175-5.673h-1.888c4.556 3.843 11.855 6.325 20.063 6.325 8.239 0 15.538-2.494 20.093-6.34h-1.872c-4.275 3.467-10.839 5.688-18.221 5.688M122.406 41.315c.295 0 .56.102.765.318.197.205.296.459.296.77 0 .273-.106.534-.296.73-.22.202-.492.32-.773.32-.28 0-.538-.126-.75-.327a1.066 1.066 0 01-.304-.746c0-.288.114-.557.318-.77a1.07 1.07 0 01.744-.295m-.008-.216a1.19 1.19 0 00-1.069.614 1.166 1.166 0 00-.188.667c0 .326.12.644.355.883.243.258.561.39.902.39.334 0 .66-.125.91-.371.242-.235.379-.554.379-.902 0-.341-.137-.667-.364-.891a1.246 1.246 0 00-.925-.39zm-.515.542v1.414h.341v-.573h.167l.272.573h.38l-.311-.63a.36.36 0 00.295-.37c0-.274-.197-.414-.598-.414h-.546zm.341.22h.152c.212 0 .303.06.303.216 0 .14-.091.193-.288.193h-.167v-.41z" fill="#FFF" fill-rule="nonzero"></path><path d="M98.3 139.2c3.696 0 4.833 2.158 4.833 4.834v6.682c0 2.676-1.137 4.834-4.832 4.834-3.696 0-4.833-2.158-4.833-4.834v-6.682c0-2.676 1.137-4.834 4.833-4.834zm53.543 0c1.397 0 2.51.19 3.459.546l-.379 2.82c-.901-.285-1.683-.474-2.655-.474-1.231 0-1.728.38-1.728 1.469 0 1.257.07 1.398 1.965 2.132 2.654 1.042 3.224 1.563 3.224 5.07 0 3.08-1.683 4.786-4.763 4.786-1.232 0-2.678-.26-3.53-.568l.402-2.798a8.586 8.586 0 002.702.475c1.397 0 1.895-.498 1.895-1.752 0-1.47-.284-1.564-1.777-2.063-2.985-.993-3.436-2.25-3.436-5.212 0-3.22 1.683-4.43 4.62-4.43zm-104.384.286l1.563 11.087 1.564-11.087h3.46l-3.055 15.779h-3.935L44 139.485h3.46zm15.779 0v2.892h-4.81v3.955h4.407v2.89h-4.407v6.042H55.11v-15.78h8.128zm4.642 0v12.888h3.981v2.89h-7.298v-15.778h3.317zm11.94 0l1.374 9.807 1.847-9.807h3.081l1.848 9.807 1.374-9.807h3.366l-2.82 15.779h-3.127l-2.18-9.502-2.181 9.502h-3.126l-2.819-15.78h3.364zm28.88 0l2.916 8.837 2.912-8.837h3.437l.404 15.779h-3.2l-.073-8.813-1.917 5.566h-3.129l-1.942-5.566-.072 8.813h-3.196l.426-15.78h3.435zm19.689 0v2.89h-4.762v3.483h4.36v2.89h-4.36v3.626h4.785v2.89h-8.103v-15.78h8.08zm5.07 0l3.956 8.91v-8.91h3.2v15.779h-3.294l-3.934-8.91v8.91h-3.198v-15.78h3.27zM98.3 142.02c-1.16 0-1.516.666-1.516 1.682v7.344c0 1.02.355 1.684 1.516 1.684s1.516-.665 1.516-1.684v-7.344c0-1.016-.355-1.682-1.516-1.682zm47.548-2.534v3.459l-1.73 3.41-1.492-.661 1.042-2.749h-.995v-3.46h3.175z" fill="#192E5E"></path></g></symbol></defs>
			<use xmlns:xlink="http://www.w3.org/1999/xlink" xlink:href="#icn-logo-vflw"></use>
	</svg>