<svg xmlns:xlink="http://www.w3.org/1999/xlink" xmlns="http://www.w3.org/2000/svg" class="icon " aria-hidden="true" width="200"  height="200" ><defs><symbol fill="none" viewBox="0 0 200 200" id="icn-logo-wafl" xmlns="http://www.w3.org/2000/svg"><g clip-path="url(#hja)"><path d="M33.68 137.791V30h131.858c.243 0 .486.01.73.014 0 2.355.009 4.715.009 7.07 0 30.89 0 61.773.01 92.662 0 .473.154 7.347-.244 8.733-.262 1.817-.515 3.643-.908 5.431a32.65 32.65 0 01-2.922 8.11 36.7 36.7 0 01-2.697 4.444c-1.021 1.428-2.182 2.767-3.376 4.054-.81.871-1.756 1.625-2.692 2.374-1.545 1.236-3.165 2.36-4.968 3.198-1.03.478-2.046.988-3.109 1.386-1.409.525-2.852.974-4.289 1.414-.67.202-1.372.333-2.065.44-1.156.178-2.318.436-3.474.45-6.251.061-12.502.061-18.757.075-7.562.019-15.124.023-22.69.037-1.012 0-2.023.014-3.035.019-7.65.037-15.301.103-22.952.089-1.86 0-3.727-.178-5.567-.449-1.799-.263-3.597-.623-5.329-1.157-2.514-.777-4.916-1.854-7.21-3.179a31.914 31.914 0 01-8.377-6.968c-2.205-2.589-3.924-5.492-5.207-8.648-1.348-3.315-2.229-6.686-2.594-10.24-.08-.594-.075-1.063-.15-1.559l.005-.009zm35.28 29.517c4.154.004 8.303.009 12.456.009.122 0 .243-.061.36-.094.707-.004 1.42-.014 2.126-.014 3.6-.009 7.197-.014 10.797-.018h25.95c4.223 0 8.446.009 12.674.009.122 0 .244-.061.366-.094.889-.042 1.788-.032 2.669-.14 1.268-.15 2.551-.29 3.792-.59 2.913-.707 5.689-1.775 8.293-3.296 3.371-1.972 6.241-4.509 8.573-7.633 2.495-3.352 4.233-7.07 5.277-11.125.8-3.109 1.25-6.26 1.418-9.453.033-.323.099-.646.094-.969-.019-.988-.061-1.976-.094-2.964-.042-2.196-.117-4.397-.121-6.593-.01-18.228-.005-36.451-.005-54.68v-.678H36.377v.688c0 21.201.01 42.403-.01 63.604 0 3.207.104 6.387.787 9.538.53 2.444 1.27 4.818 2.313 7.084 1.124 2.435 2.547 4.682 4.327 6.705 1.568 1.784 3.273 3.413 5.225 4.785a31.591 31.591 0 007.033 3.746c3.151 1.189 6.391 1.967 9.767 2.079 1.049.028 2.093.056 3.142.089v.005zM108.41 36.204c-.033.028-.065.06-.098.089v5.516h2.725v15.887h-2.707v5.548h14.984v-5.558h-4.093v-4.902h4.725v-6.11h-4.725v-4.86h8.017c.266 1.137.515 2.252.786 3.361.295 1.208.3 1.208 1.601 1.208h4.435V36.19h-20.036c-1.873 0-3.746.01-5.614.014zm-44.257.089v5.511h1.602c-1.007 3.334-1.995 6.62-2.983 9.903-.075 0-.154-.01-.23-.01-.833-3.282-1.671-6.564-2.523-9.926h1.695v-5.548h-9.795v5.455c.028.032.06.065.088.098h1.546c-.867 3.221-1.723 6.405-2.576 9.585h-.196c-.988-3.166-1.972-6.336-2.983-9.585h1.62c.028-.033.061-.066.09-.098v-5.446H38.614v5.553h1.405c2.411 7.174 4.813 14.314 7.22 21.469h6.85c.876-3.573 1.746-7.127 2.617-10.676.033 0 .07.01.103.014.89 3.563 1.78 7.126 2.665 10.662h6.85c.164-.52.318-1.016.482-1.517.73-2.257 1.452-4.514 2.191-6.762 1.405-4.275 2.82-8.55 4.247-12.82.052-.15.267-.323.426-.342.38-.051.773-.014 1.152-.014v-5.586H64.251c-.033.028-.066.061-.099.09v-.01zm17.713 5.478c-1.863 5.361-3.703 10.657-5.562 15.995h-1.808v5.483h12.966v-5.563h-3.002c.403-1.152.796-2.266 1.194-3.394 2.575 0 5.141 0 7.707.009.145 0 .375.131.417.253.375 1.025.712 2.06 1.082 3.165h-2.857v5.52h13.495v-5.501c-.483 0-.951-.019-1.414.005-.356.018-.52-.07-.646-.46-1.204-3.619-2.445-7.224-3.671-10.834-.525-1.54-1.045-3.086-1.583-4.678h2.463v-5.548H79.501v5.548h2.364zm68.914-5.544h-13.663V41.8h2.735v15.934h-2.726v5.507h24.367V52.466c-1.676 0-3.324-.005-4.973.009-.117 0-.309.14-.337.248-.206.843-.374 1.695-.571 2.538-.192.82-.403 1.639-.595 2.416h-6.953V41.785h2.716v-5.562.004z" fill="#000"></path><path d="M65.82 167.223c-3.381-.117-6.617-.889-9.768-2.079a31.588 31.588 0 01-7.033-3.745c-1.952-1.372-3.652-3.002-5.225-4.786-1.78-2.022-3.203-4.27-4.327-6.705-1.048-2.266-1.784-4.64-2.313-7.084-.683-3.151-.786-6.33-.786-9.538.018-21.201.009-42.403.009-63.604v-.688h127.199v.679c0 18.228 0 36.451.004 54.679 0 2.196.08 4.397.122 6.593v3.933c-.168 3.198-.618 6.349-1.419 9.454-1.044 4.055-2.776 7.772-5.277 11.125-2.327 3.123-5.197 5.661-8.573 7.632-2.598 1.522-5.375 2.589-8.292 3.296-1.241.3-2.524.445-3.793.59-.885.103-1.779.098-2.669.141a11330.727 11330.727 0 01-26.057-.005c-4.185 0-8.376-.009-12.562-.005-.122 0-.244.056-.365.089-3.601.005-7.197.014-10.798.019-.707 0-1.418.009-2.125.014H68.966c-1.05 0-2.103-.005-3.152-.009l.005.004zm18.424-74.214c-2.407-2.196-4.748-4.34-7.098-6.475-2.693-2.444-5.39-4.88-8.091-7.314-.632-.567-.642-.557-1.227.028l-22.03 22.016c-2.674 2.674-5.352 5.347-8.026 8.016-.14.141-.271.29-.477.506.182.14.341.243.473.374 2.598 2.552 5.192 5.113 7.79 7.67 2.796 2.753 5.592 5.511 8.387 8.264 2.795 2.753 5.59 5.511 8.386 8.264 2.94 2.899 5.886 5.797 8.821 8.705 4.294 4.247 8.583 8.498 12.877 12.75.051.051.107.103.159.149 5.272-4.34 10.535-8.676 15.863-13.063l15.854 13.026c15.625-15.419 31.222-30.809 46.833-46.209-.132-.136-.23-.249-.333-.352-2.397-2.355-4.804-4.705-7.192-7.074-.885-.881-1.723-1.812-2.603-2.693-6.813-6.817-13.635-13.63-20.457-20.443-.094-.093-.169-.234-.281-.266-.159-.047-.403-.09-.501 0a51.363 51.363 0 00-1.882 1.638c-1.25 1.129-2.496 2.267-3.746 3.404-1.672 1.522-3.348 3.04-5.015 4.566-1.11 1.016-2.201 2.055-3.306 3.071-.529.487-1.076.95-1.634 1.438-.669-.59-1.329-1.157-1.971-1.737-1.662-1.503-3.32-3.016-4.977-4.524-1.26-1.147-2.524-2.29-3.783-3.446-1.489-1.367-2.974-2.748-4.463-4.11-.196-.179-.43-.32-.632-.464L84.25 93.009h-.005z" fill="#FAB427"></path><path d="M51.913 41.673v-5.455h9.795v5.548h-1.695c.857 3.362 1.69 6.645 2.524 9.927.075 0 .154.01.23.01.987-3.283 1.98-6.565 2.982-9.904h-1.601v-5.51c.032-.029.065-.062.098-.09h10.572v5.586c-.379 0-.772-.033-1.151.014-.16.019-.375.192-.427.342-1.428 4.27-2.842 8.545-4.246 12.82-.74 2.252-1.461 4.51-2.192 6.761-.159.497-.318.998-.482 1.517h-6.85c-.885-3.535-1.775-7.098-2.664-10.661-.033 0-.07-.01-.103-.014l-2.618 10.675h-6.85c-2.407-7.154-4.809-14.295-7.22-21.468H38.61v-5.553h10.882v5.445c-.028.033-.06.066-.089.099h-1.62c1.011 3.25 2 6.42 2.983 9.584h.196c.857-3.179 1.71-6.363 2.575-9.584h-1.545c-.028-.033-.06-.066-.089-.099l.01.01zm29.952.093H79.51v-5.548h21.145v5.548h-2.463c.539 1.593 1.059 3.133 1.583 4.678 1.227 3.61 2.468 7.215 3.671 10.835.131.388.29.477.646.459.464-.024.927-.005 1.414-.005v5.502H92.012v-5.52h2.856c-.375-1.106-.712-2.14-1.082-3.166-.042-.122-.271-.253-.416-.253-2.566-.014-5.127-.01-7.707-.01-.398 1.13-.787 2.244-1.194 3.396h3.001v5.562H74.505v-5.483h1.807a16975.291 16975.291 0 015.563-15.995h-.01zm10.339 8.012c-.81-2.594-1.602-5.141-2.393-7.688h-.117c-.81 2.542-1.615 5.085-2.444 7.688h4.954zm16.205-13.574c1.873-.005 3.746-.014 5.614-.014h20.036v10.193h-4.435c-1.297 0-1.306 0-1.601-1.208-.267-1.11-.52-2.22-.786-3.362h-8.017v4.86h4.725v6.11h-4.725v4.903h4.093v5.558h-14.984v-5.548h2.707V41.809h-2.725v-5.516c.033-.028.065-.06.098-.089zm42.37.019v5.562h-2.716v15.892h6.953c.192-.782.403-1.597.595-2.416.197-.843.361-1.695.571-2.538.028-.108.22-.248.337-.248 1.649-.014 3.292-.01 4.973-.01V63.24h-24.367v-5.506h2.726V41.795h-2.735v-5.572h13.663z" fill="#fff"></path><path d="M107.627 167.111c4.345 0 8.69.005 13.036.009l-.014.08h-13.031a.48.48 0 01.009-.084v-.005z" fill="#9A8764"></path><path d="M120.649 167.195l.014-.079c4.34 0 8.681 0 13.021-.005-.122.033-.243.094-.365.094-4.224 0-8.447-.005-12.675-.01h.005z" fill="#635D51"></path><path d="M107.627 167.111c0 .028-.009.056-.009.084H94.699c.122-.032.244-.089.366-.089 4.186 0 8.376 0 12.562.005z" fill="#CCA456"></path><path d="M68.97 167.228h12.806c-.121.033-.243.094-.36.094-4.153 0-8.302-.005-12.455-.01 0-.028.01-.051.014-.079l-.005-.005z" fill="#635D51"></path><path d="M163.702 134.874v-3.934c.033.988.08 1.976.094 2.964.004.323-.061.646-.094.97z" fill="#7F725B"></path><path d="M68.97 167.228c0 .028-.01.052-.014.08a658.48 658.48 0 01-3.142-.089c1.05 0 2.103.004 3.152.009h.004z" fill="#8F7F60"></path><path d="M84.244 93.005c5.211-4.739 10.441-9.491 15.714-14.286.201.145.435.286.632.464 1.493 1.367 2.973 2.743 4.462 4.11a915.43 915.43 0 003.783 3.447c1.658 1.507 3.315 3.02 4.977 4.523.642.58 1.297 1.147 1.972 1.737.552-.487 1.105-.95 1.634-1.438 1.105-1.02 2.196-2.055 3.305-3.071 1.667-1.527 3.344-3.044 5.015-4.565 1.246-1.133 2.491-2.271 3.746-3.404a52.456 52.456 0 011.882-1.64c.103-.083.347-.041.501 0 .113.034.188.174.281.268 6.818 6.812 13.64 13.625 20.457 20.443.885.885 1.718 1.816 2.603 2.692 2.388 2.364 4.795 4.715 7.192 7.075.108.103.206.215.333.351-15.611 15.4-31.203 30.791-46.832 46.209-5.296-4.354-10.578-8.69-15.854-13.026-5.329 4.388-10.596 8.723-15.864 13.064-.051-.047-.108-.094-.16-.15-4.293-4.252-8.582-8.503-12.875-12.75-2.936-2.903-5.881-5.801-8.822-8.704-2.795-2.758-5.59-5.511-8.386-8.264-2.795-2.754-5.59-5.511-8.386-8.265-2.594-2.556-5.192-5.113-7.791-7.669-.131-.131-.29-.234-.473-.375.201-.215.337-.365.478-.505 2.673-2.674 5.347-5.348 8.025-8.017l22.03-22.016c.585-.585.595-.599 1.227-.028a2375.882 2375.882 0 018.09 7.314c2.351 2.13 4.688 4.275 7.1 6.476h.004zm38.98 51.28c.042-.042.079-.084.122-.127.59-.59 1.179-1.179 1.774-1.769l.145-.103c.122-.141.23-.291.361-.422 1.32-1.287 2.655-2.57 3.97-3.863 2.866-2.818 5.722-5.642 8.588-8.461 2.729-2.687 5.459-5.375 8.184-8.067 3.83-3.783 7.656-7.576 11.481-11.364.127-.126.211-.286.131-.234-8.816-8.953-17.638-17.905-26.45-26.853-1.353 1.213-2.608 2.332-3.858 3.46a781.534 781.534 0 00-3.624 3.282c-1.714 1.56-3.428 3.119-5.137 4.683-1.053.964-2.097 1.933-3.123 2.88-.487-.427-.964-.839-1.428-1.265-1.278-1.156-2.547-2.322-3.825-3.484-1.232-1.123-2.472-2.238-3.704-3.366-1.531-1.405-3.053-2.823-4.579-4.238a162.53 162.53 0 00-1.274-1.16c-.974-.872-.964-.858-1.798-.094-2.495 2.28-5 4.546-7.5 6.826-2.28 2.08-4.557 4.168-6.832 6.251-.628.576-.436.674-1.222-.028-2.505-2.252-4.992-4.523-7.478-6.794-1.943-1.774-3.867-3.558-5.806-5.333-.594-.543-1.212-1.063-1.929-1.695l-26.651 26.68c.735.73 1.4 1.404 2.074 2.065 2.304 2.266 4.607 4.527 6.91 6.794 2.862 2.818 5.718 5.642 8.579 8.46 2.687 2.651 5.375 5.296 8.063 7.946 2.926 2.885 5.857 5.764 8.774 8.658 2.402 2.388 4.786 4.794 7.188 7.182.332.333.716.614 1.081.923.38-.328.726-.637 1.087-.932 2.692-2.21 5.384-4.415 8.072-6.625 1.999-1.644 3.989-3.297 5.979-4.95.374-.309.665-.262 1.002.057a32.72 32.72 0 001.554 1.334c1.382 1.128 2.777 2.238 4.149 3.371 1.391 1.147 2.763 2.318 4.153 3.47 1.723 1.423 3.456 2.837 5.183 4.256.071-.023.136-.047.206-.07.333-.328.661-.656.993-.983.047-.033.094-.061.141-.094 1.386-1.391 2.771-2.781 4.157-4.167.038-.033.075-.071.113-.103l1.807-1.808c.066-.042.136-.084.201-.131l-.004.005zm-31.02-94.507H87.25c.829-2.603 1.634-5.146 2.444-7.688h.117a8163.491 8163.491 0 002.393 7.688z" fill="#000"></path><path d="M115.606 151.645c-1.728-1.418-3.46-2.832-5.184-4.256-1.39-1.152-2.762-2.322-4.153-3.469-1.376-1.133-2.772-2.243-4.148-3.371a30.24 30.24 0 01-1.555-1.335c-.342-.318-.632-.37-1.002-.056a1196.86 1196.86 0 01-5.979 4.949c-2.688 2.21-5.385 4.415-8.072 6.625-.36.295-.707.604-1.087.932-.365-.309-.744-.59-1.081-.922-2.402-2.388-4.785-4.795-7.187-7.183-2.917-2.893-5.849-5.773-8.775-8.657l-8.063-7.946c-2.86-2.819-5.717-5.642-8.578-8.461-2.299-2.266-4.607-4.528-6.91-6.794-.675-.665-1.34-1.334-2.075-2.065l26.651-26.68c.721.633 1.335 1.152 1.93 1.695 1.938 1.775 3.867 3.564 5.806 5.334 2.486 2.27 4.972 4.541 7.477 6.794.787.707.595.604 1.222.028a2827.591 2827.591 0 016.832-6.251c2.495-2.28 5.005-4.547 7.5-6.827.834-.763.825-.777 1.799.094.426.384.852.772 1.273 1.161 1.527 1.41 3.048 2.828 4.579 4.237 1.227 1.129 2.468 2.243 3.704 3.367 1.274 1.161 2.547 2.322 3.826 3.484.468.421.945.833 1.428 1.264 1.025-.946 2.074-1.915 3.123-2.88 1.709-1.564 3.423-3.123 5.136-4.682 1.208-1.096 2.412-2.191 3.624-3.282 1.25-1.129 2.505-2.248 3.858-3.46l26.493 26.88c.004 0 .004.005-.173.206-3.826 3.788-7.651 7.576-11.481 11.364-2.725 2.693-5.455 5.38-8.185 8.068-2.861 2.819-5.722 5.647-8.587 8.461-1.316 1.297-2.65 2.575-3.971 3.863-.131.126-.243.281-.36.421l-.146.103c-.59.59-1.179 1.18-1.774 1.77l-.122.126c-.065.042-.136.085-.201.131l-1.808 1.808c-.037.033-.074.07-.112.103-1.386 1.39-2.772 2.781-4.158 4.167-.047.033-.093.061-.14.094-.333.327-.66.655-.993.983l-.206.07.005-.005zM83.78 131.919c.44.3.73-.117.97-.3.744-.571 1.395-1.264 2.13-1.84.22-.173.623-.182.922-.145.108.014.178.384.253.595.056.15.099.304.145.459.501-.838.88-1.677 1.241-2.519.403-.942.646-1.99 1.218-2.805.67-.951 1.624-1.7 2.448-2.547.909-.937 1.855-1.84 2.693-2.838.899-1.067 1.564-2.289 2.079-3.596.576-1.456 1.044-2.921 1.081-4.499.024-.946-.042-1.915.14-2.833.361-1.831 1.705-2.767 3.4-3.254 1.475-.426 2.135.323 2.397 1.034.576 1.555.272 3.095-.576 4.416-1.357 2.102-2.893 4.092-4.34 6.134-2.407 3.39-4.827 6.77-7.197 10.188-2.406 3.47-4.682 7.033-6.723 10.737-.66 1.194-1.25 2.425-1.962 3.802.337.042.562.121.763.084.796-.15 1.011 0 .946.791-.038.473-.155.941-.202 1.414-.06.604-.08 1.213-.121 1.822a41.501 41.501 0 003.221-2.707c1.054-.974 2.07-1.985 3.1-2.978 1.086-1.048 2.168-2.102 3.259-3.141 1.208-1.152 2.43-2.285 3.638-3.437.81-.773 1.269-.838 2.065-.127 2.05 1.836 4.078 3.695 6.115 5.544 1.152 1.044 2.299 2.093 3.549 3.231-.038-.239-.033-.337-.066-.417-.655-1.624-1.283-3.263-1.985-4.865-1.025-2.336-1.503-4.799-1.526-7.323-.019-1.723.22-3.455.426-5.174.267-2.205.978-4.293 1.924-6.297.721-1.527 1.545-3.011 2.21-4.561.941-2.191 1.405-4.518 1.442-6.887.019-1.33-.173-2.683-.44-3.99-.473-2.303-1.629-4.28-3.469-5.74-2.44-1.943-5.31-2.206-8.274-1.714-1.93.323-3.741 1.035-5.446 2.028-2.322 1.353-4.33 3.043-5.862 5.267-1.358 1.976-2.28 4.158-2.86 6.462a31.361 31.361 0 00-.787 4.762c-.131 1.428-.047 2.879-.019 4.317.01.604.117 1.208.183 1.812-1.138.505-1.213.791-.506 1.863.094.141.22.267.276.422.108.309.216.622.258.945.107.834-.262 1.541-.712 2.187-.595.857-1.255 1.672-1.868 2.519-.53.731-.983 1.503-1.026 2.44-.042 1.002.464 1.437 1.466 1.273l.01-.014zm56.768-23.936c-.075-.028-.145-.061-.22-.089.033-.477.028-.964.108-1.432.374-2.107.74-4.21.445-6.368-.145-1.068-.417-2.065-1.026-2.964-.248-.365-.529-.539-.927-.201-.267.224-.543.444-.81.669-1.194 1.007-2.378 2.027-3.586 3.02-.366.3-.801.506-1.302.815 0-.468-.033-.792.005-1.101.135-1.165.332-2.327.43-3.493.108-1.315-.037-2.622-.332-3.905-.333-1.46-.712-2.893-1.676-4.106-.497-.623-.651-.674-1.255-.14-.164.145-.365.252-.515.412-1.929 1.994-3.905 3.951-5.764 6.012-1.405 1.55-2.716 3.193-3.975 4.865a86.588 86.588 0 00-3.751 5.38c-.857 1.334-1.583 2.762-2.29 4.185a45.723 45.723 0 00-1.774 4.032c-.852 2.243-1.386 4.57-1.836 6.93-.393 2.055-.491 4.125-.618 6.194-.051.853.145 1.723.197 2.585.112 1.854.656 3.615 1.189 5.366a34.125 34.125 0 002.435 5.946c.613 1.166 1.269 2.276 2.21 3.208.702.693.796.702 1.531.032 1.662-1.507 3.343-2.992 4.973-4.537 2.865-2.711 5.698-5.45 8.54-8.189 1.564-1.503 3.137-3.001 4.654-4.546 3.063-3.124 6.167-6.204 9.103-9.44 2.584-2.847 3.872-6.213 2.996-10.128-.187-.842-.547-1.662-.931-2.448-.328-.679-.595-.689-1.208-.23-.801.595-1.583 1.217-2.388 1.803-.871.637-1.761 1.245-2.641 1.868l.009-.005zM81.838 143.7l.191-.15c-.07-.159-.14-.323-.22-.482-.351-.712-.787-1.396-1.044-2.145a62.022 62.022 0 01-1.32-4.415c-.202-.778-.356-1.597-.352-2.393.005-.983.188-1.971.319-2.954.253-1.845.857-3.592 1.545-5.315.707-1.765 1.465-3.512 2.126-5.3.683-1.859 1.18-3.779.913-5.783-.188-1.433-.469-2.856-.778-4.27-.51-2.36-1.264-4.654-2.444-6.766-1.025-1.84-2.149-3.629-3.277-5.408-1.634-2.58-3.559-4.935-5.806-7.005-.862-.796-1.869-1.432-2.828-2.163-.188.272-.272.412-.38.534-1.264 1.414-2.172 3.025-2.519 4.902a34.22 34.22 0 00-.468 3.592c-.023.29.117.618-.206.74a1.338 1.338 0 01-.866-.005c-1.068-.431-1.91-1.19-2.636-2.056-.342-.407-.614-.29-.923-.089-.178.117-.318.31-.445.492-.702 1.016-.945 2.2-1.114 3.385-.272 1.911-.744 3.797-.698 5.745.01.431-.29.586-.674.45-1.147-.403-2.229-.913-3.01-1.906-.244-.314-.562-.566-.88-.88-.15.234-.282.374-.338.538-.459 1.339-1.002 2.665-1.32 4.036a10.65 10.65 0 00-.24 3.245c.123 1.433.773 2.735 1.476 3.99 1.7 3.029 3.994 5.595 6.41 8.044 4.888 4.958 9.982 9.692 15.231 14.267 2.154 1.877 4.378 3.68 6.57 5.515l.004.01z" fill="#F9B428"></path><path d="M125.115 142.389l.146-.103a5.262 5.262 0 00-.146.103zm-1.896 1.901c.042-.042.084-.085.122-.127-.042.042-.08.085-.122.127z" fill="#020202"></path><path d="M123.022 144.416c.066-.042.136-.084.202-.131-.066.042-.136.084-.202.131z" fill="#020202"></path><path d="M140.553 107.983c.88-.623 1.77-1.231 2.641-1.868.805-.59 1.587-1.208 2.388-1.803.613-.459.875-.445 1.208.23.379.782.739 1.601.931 2.449.871 3.914-.412 7.28-2.996 10.127-2.936 3.236-6.045 6.317-9.103 9.44-1.517 1.55-3.09 3.043-4.654 4.546-2.837 2.735-5.675 5.479-8.54 8.19-1.63 1.54-3.311 3.029-4.973 4.537-.735.665-.829.655-1.531-.033-.941-.927-1.597-2.042-2.21-3.207a34.32 34.32 0 01-2.435-5.947c-.538-1.751-1.081-3.512-1.189-5.366-.051-.861-.253-1.732-.197-2.584.131-2.07.23-4.14.618-6.195.45-2.36.984-4.687 1.836-6.93a45.574 45.574 0 011.774-4.031c.707-1.424 1.433-2.847 2.29-4.186a86.824 86.824 0 013.751-5.38c1.259-1.672 2.57-3.315 3.975-4.865 1.863-2.056 3.835-4.018 5.764-6.012.15-.155.351-.267.515-.412.599-.534.758-.482 1.255.14.964 1.213 1.343 2.646 1.676 4.107.295 1.287.435 2.594.332 3.905-.093 1.17-.295 2.327-.43 3.493-.038.313-.005.632-.005 1.1.496-.309.936-.515 1.302-.815 1.208-.988 2.392-2.008 3.586-3.02.267-.225.543-.445.81-.67.398-.337.684-.163.927.202.609.894.881 1.896 1.026 2.964.295 2.158-.071 4.261-.445 6.368-.084.468-.075.955-.108 1.433.075.028.145.06.22.089l-.009.004z" fill="#000"></path><path d="M85.897 120.27c-.061-.604-.169-1.208-.183-1.812-.028-1.443-.112-2.889.019-4.317.145-1.597.398-3.203.786-4.762.581-2.304 1.503-4.486 2.861-6.462 1.531-2.224 3.54-3.914 5.862-5.267 1.705-.993 3.512-1.705 5.446-2.028 2.959-.496 5.834-.23 8.274 1.714 1.835 1.465 2.996 3.441 3.469 5.74.267 1.307.459 2.66.44 3.99-.032 2.374-.496 4.701-1.442 6.887-.669 1.55-1.489 3.034-2.21 4.561-.946 2.004-1.657 4.092-1.924 6.297-.206 1.719-.445 3.451-.426 5.174.028 2.519.501 4.982 1.526 7.323.702 1.602 1.33 3.241 1.985 4.865.033.08.028.174.066.417-1.25-1.138-2.397-2.187-3.549-3.231-2.037-1.849-4.064-3.708-6.115-5.544-.796-.711-1.255-.65-2.065.127-1.208 1.152-2.43 2.285-3.638 3.437-1.091 1.039-2.173 2.093-3.26 3.141-1.03.993-2.05 2.004-3.099 2.978a40.398 40.398 0 01-3.221 2.707c.037-.609.06-1.218.121-1.822.047-.473.164-.941.202-1.414.065-.791-.15-.941-.946-.791-.201.037-.426-.042-.763-.084.707-1.377 1.301-2.608 1.962-3.802 2.041-3.704 4.312-7.262 6.723-10.737 2.37-3.418 4.79-6.794 7.197-10.188 1.452-2.042 2.987-4.032 4.341-6.134.852-1.321 1.156-2.861.575-4.416-.266-.716-.922-1.46-2.397-1.034-1.695.487-3.034 1.423-3.4 3.254-.182.918-.116 1.887-.14 2.833-.037 1.578-.51 3.048-1.081 4.499-.515 1.307-1.18 2.529-2.08 3.596-.837.998-1.783 1.901-2.692 2.838-.819.847-1.779 1.592-2.448 2.547-.576.819-.815 1.863-1.218 2.805-.36.842-.74 1.681-1.24 2.519-.047-.155-.09-.309-.146-.459-.08-.211-.145-.581-.253-.595-.304-.037-.702-.028-.922.145-.74.576-1.386 1.269-2.13 1.84-.24.183-.53.6-.97.3-.046-.698.483-1.025.9-1.437.43-.431.851-.871 1.24-1.339.258-.314.084-.553-.262-.661-.342-.103-.693-.173-1.04-.262.127-.075.253-.065.37-.098.515-.141 1.073-.047 1.531-.497 1.138-1.114 2.332-2.167 3.54-3.282-.089-.168-.196-.421-.346-.641-.955-1.377-.768-2.842-.36-4.331.102-.38.154-.773.229-1.157l-.183-.168c-.3.145-.655.234-.894.449-.305.276-.52.646-.759.988-.59.847-1.128 1.082-1.854.787l-.01.014zm-4.055 23.425c-2.191-1.836-4.41-3.638-6.57-5.516-5.248-4.574-10.343-9.308-15.23-14.267-2.422-2.453-4.711-5.014-6.41-8.044-.703-1.255-1.359-2.556-1.476-3.989-.089-1.072 0-2.196.239-3.245.318-1.377.862-2.697 1.32-4.036.057-.169.188-.309.338-.539.318.314.636.567.88.881.782.997 1.859 1.507 3.01 1.905.385.136.684-.018.675-.449-.047-1.953.426-3.84.697-5.745.169-1.185.413-2.37 1.115-3.385.126-.183.267-.375.445-.492.309-.206.585-.319.922.089.726.866 1.569 1.625 2.636 2.055.253.103.609.103.866.005.324-.117.183-.45.206-.74.094-1.203.253-2.402.469-3.591.346-1.878 1.25-3.484 2.519-4.903.107-.121.187-.266.379-.533.96.725 1.967 1.367 2.828 2.163a34.444 34.444 0 015.806 7.005c1.129 1.779 2.252 3.568 3.278 5.408 1.18 2.111 1.934 4.406 2.444 6.766.304 1.414.585 2.837.777 4.27.262 2.004-.23 3.924-.913 5.782-.655 1.784-1.419 3.531-2.126 5.301-.688 1.718-1.292 3.465-1.545 5.314-.131.983-.314 1.967-.318 2.955-.005.796.15 1.615.35 2.392.39 1.485.82 2.964 1.321 4.416.258.744.693 1.428 1.045 2.144.08.159.145.323.22.482l-.192.15-.005-.009z" fill="#000"></path><path d="M85.897 120.269c.725.295 1.264.061 1.854-.786.239-.342.454-.717.758-.988.24-.215.59-.304.895-.45l.182.169c-.075.384-.126.777-.23 1.156-.406 1.489-.594 2.955.362 4.332.154.22.257.473.346.641-1.208 1.114-2.407 2.168-3.54 3.282-.459.45-1.016.356-1.531.497-.117.032-.243.023-.37.098.347.084.698.159 1.04.262.346.103.52.347.262.66-.384.469-.81.909-1.241 1.34-.417.412-.946.744-.899 1.437-1.002.164-1.508-.272-1.465-1.274.042-.936.496-1.709 1.025-2.439.613-.848 1.274-1.658 1.868-2.519.45-.646.815-1.353.712-2.187-.042-.323-.15-.637-.258-.946-.056-.154-.182-.28-.276-.421-.707-1.072-.632-1.358.506-1.864z" fill="#FEFDFD"></path></g><defs><clipPath id="hja"><path fill="#fff" d="M33.68 30h132.635v140H33.68z"></path></clipPath></defs></symbol></defs>
			<use xmlns:xlink="http://www.w3.org/1999/xlink" xlink:href="#icn-logo-wafl"></use>
	</svg>